<svg version="1" xmlns="http://www.w3.org/2000/svg" width="1333.333" height="1333.333" viewBox="0 0 1000.000000 1000.000000"><path d="M494.5 110.9c-1.6.4-4.1 1.3-5.5 2.1-1.3.7-5 1.2-8.1 1.1-3.2-.1-6 .3-6.4.9-.7 1.2-7 5.6-11.9 8.2-1.7 1-4.8 1.8-7 1.8-3.5 0-3.7.2-2.5 1.7 1.1 1.3 1.1 1.7.1 2.1-.7.2-2 1.8-2.8 3.4-1.5 3-1.5 3.1.4 2.5 1.8-.4 2.1 0 2.4 3.7.2 2.2-.1 5.8-.6 8-.6 2.7-.5 4.5.3 5.7 1.2 2 6.1 16.5 6.1 18.1 0 .5-.7 1.6-1.6 2.5-2.1 2.1-1.2 8.9 2.4 18.9 2.8 7.8 2.9 7.9 6.5 8.2 3.6.3 3.7.4 6.2 8.3 1.4 4.4 2.5 8.9 2.5 10 0 2.1 2 2.5 3.7.8.7-.7 2.3-.9 3.7-.5 1.9.5 2.7 1.5 3.2 4.1.3 1.9.4 4.4.1 5.5-.3 1 0 2.1.7 2.4.7.3.6.8-.4 1.5-1.3.9-5 1.6-14.3 2.5-3.5.4-11.7 4.8-11.7 6.3 0 1.7-4 4.2-5.7 3.6-.7-.3-2.1.1-3.1 1-.9.8-3.6 1.5-6 1.5-2.4.1-5.5.8-7 1.8-1.4.9-4.5 1.9-6.8 2.1-8.2.6-11.7 2.4-14.1 7.2-2.3 4.6-5.1 8.1-6.4 8.1-.4 0-2.7 1.2-5.1 2.7-8.8 5.5-15.3 17.4-22.2 40.8-2.9 9.6-5.8 17.3-7.3 19.3-1.4 1.8-2.3 3.9-2 4.6.3.7 3.5 3.2 7.1 5.6 3.6 2.4 6.6 4.6 6.6 5 0 .3-.6 1.4-1.4 2.5-2.3 3.4-5.8 19.5-6.7 31.5-.5 6.3-1.8 15.3-2.9 20-3.4 13.5-3.5 15.2-1.5 16.6 2.1 1.6 1.4 6.6-1.7 12.7-4.2 8.3-6.2 28-3.8 36.9.6 2.1 1.2 6.8 1.4 10.5.2 3.8 1.4 16.6 2.6 28.5 2.3 23.2 2.4 32.9.4 29.3-.7-1.1-1.5-6.7-1.9-12.5-1-14.6-1.8-19.3-3.4-19.8-.9-.3-1.1 0-.6.8.6 1 .3 1.1-1.1.6-1-.4-3.4-1-5.2-1.3-2.2-.4-3.1-1-2.8-1.9.3-.8 0-1.1-1-.7-1.7.6-1.8-.4-.1-2.1.7-.7 1.9-1 2.7-.8 1.2.4 1.3.2.4-.9-.7-.8-1.5-3.3-1.9-5.7-.4-2.3-1.1-4.2-1.6-4.2s-.9-.9-.9-2.1c0-1.1-.4-1.8-.9-1.5-.4.3-.6-.6-.3-1.9.2-1.4.8-2.5 1.2-2.5.4 0 1-1.8 1.2-4.1.3-3.5.2-3.8-.9-2.3-1.2 1.7-1.3 1.7-1.3 0 0-1-.5-1.5-1.2-1.1-.7.4-.3-.2 1-1.3 2.7-2.5 2.8-3.5.3-2.7-1.4.4-2 0-2.3-2-.3-1.4-.1-2.5.6-2.5.6-.1 0-.7-1.4-1.5s-1.9-1.4-1.2-1.5c.6 0 1.2-.9 1.2-2.1 0-1.6-.4-1.9-2.2-1.4-2 .5-2.1.4-.5-.5.9-.6 2.1-.9 2.6-.6.5.4 1.7.3 2.6 0 1.2-.5 1.3-.9.5-1.4-.9-.6-.9-1.2 0-2.6 1.5-2.4-.3-7.9-2.2-6.8-.8.5-.7 0 .2-1.1.8-1 1-1.6.3-1.2-.6.4-1.6 0-2.1-.8-.4-.9-1.8-1.7-2.9-1.8-1.3 0-1.9-.6-1.6-1.4.3-.8 1.3-1.1 2.3-.8 1.2.4 1.9-.1 2.3-1.6.4-1.6.3-1.9-.5-1.1-1.5 1.5-3.8.3-3.8-1.9 0-1.8-1-2.3-3.9-1.9-.8.1-1.1-.4-.9-1.2.4-1-.7-1.3-4.3-1.3-2.7 0-4.9.3-4.9.6 0 .4-.7 1-1.6 1.3-.8.3-1.3.2-1-.3.3-.5-.9-1.2-2.7-1.6-1.7-.4-3.9-.9-4.7-1.2-4-1.1-7-1.2-7-.1 0 .7-.6.3-1.4-.8-1.4-1.8-1.5-1.8-2.1.9l-.7 2.8-2.3-2.1c-2-1.9-2.3-1.9-2.9-.4-.5 1.2-1.3 1.4-3.4.9-1.5-.4-7.2-.9-12.7-1.1-5.5-.2-11.2-.6-12.7-.8-1.5-.2-4 .3-5.5 1.1-1.8.9-2.9 1-3.3.3-.5-.7-1.5-.8-3.2-.1-1.8.7-2.9.6-3.7-.2-.6-.6-1.1-.7-1.1-.1 0 .5-2.3 1-5.2 1.2-2.9.2-5.8.8-6.5 1.3-.6.6-1.6.8-2.2.5-.5-.3-2.1-.2-3.4.3-1.7.7-2.7.7-2.9 0-.2-.7-1.2-.7-3 0s-2.9.7-3.4 0c-.4-.7-1-.6-1.9.1-.7.6-1.9.8-2.8.4-.8-.3-1.8-.1-2.1.5-.4.6-1.3.8-2.1.4-.9-.3-2.1 0-2.9.6-.7.6-1.6.8-1.9.4-.4-.3-1.2-.1-1.9.5-.7.5-2.6.8-4.3.7-1.6-.2-3.5 0-4.3.4-.8.4-3.1.5-5.2.1s-4.5-.3-5.5.2c-1.9 1.1-5.5 1.6-19 2.4-5.5.3-10.7.8-11.5 1.1-1.4.6-15.7 1.4-21 1.2h-3.5c-2.6.2-41.1 1.2-42 1.1-.5 0-10.2-.2-21.5-.3-11.3-.1-21.1-.6-21.7-1-.7-.4-2.1-.4-3 .1-1.1.6-5.3.5-11.3-.3-5.2-.6-9.9-1.1-10.5-.9-5.1 1.3-7.5 1.2-7.5-.1 0-.8-.4-1.5-1-1.5-.5 0-1 .5-1 1.1 0 .6-.8.8-1.8.5-1.5-.5-7.6-1.3-15.5-2-3.5-.3-4.2 1.2-5.1 10.9-4.2 43.3-4.2 72.9 0 111.5 9.6 87.4 43.7 173.6 96.3 243.5 14.8 19.7 26.8 33.3 47.5 54.1 21.5 21.4 32.2 30.8 52.4 46.1l11.3 8.5 10.9-.6c5.9-.3 12.1-1.1 13.6-1.7 3.8-1.4 22.4-2.5 23.2-1.3.4.5 1.8 1.4 3.2 2 2 .9 3.7.5 9.5-2.1 12.3-5.5 19.9-7.3 34-7.9 8.7-.3 12.2-.2 10.7.4-1.3.6-2.8.8-3.2.5-.5-.3-1.1-.1-1.4.4-.9 1.3 2.5 2.3 3.9 1.1.7-.6 2.9-.8 4.9-.6 2.5.4 3.4.2 3-.6-.5-.7 1.4-.8 6.2-.3 3.8.5 7.6.8 8.4.7.8-.1 6.2-.6 12-1.2 18.4-1.8 30.8-1.2 40 2.1 1.4.4 3.9 1.1 5.5 1.5 2.8.5 28.7 5.3 29.3 5.4.1 0 .2.6.2 1.2 0 .8-1.3 1.3-3.1 1.4-1.9.1-2.6-.2-1.8-.7 1.8-1.1 1.1-1.5-3.9-2.2-2.4-.3-4-.1-3.6.4.3.5-1.7 0-4.5-1.1-5.3-2.1-10.3-1.8-6 .4 2.5 1.2 3.2 2.6 2.1 4.2-.8 1.3-11.4 2.6-10.6 1.3.2-.4-.1-1.1-.7-1.4-.5-.4-.8-1.2-.6-1.9.7-1.9-1.8-4.7-3.7-4-.9.3-1.6 1-1.6 1.5 0 .4.7.6 1.5.3.8-.4 1.5-.2 1.5.4 0 .5-1.6 1.3-3.5 1.6-1.9.4-3.5 1.2-3.5 1.8 0 .6.9.8 2.3.3 4.1-1.3 6-1 6.3.8.2 1.5-.3 1.7-3.4 1.3-2.1-.3-2.9-.3-1.9 0 .9.3 1.7 1 1.7 1.5 0 .6.4.8.9.5 1.1-.7 4.1.3 4.1 1.4 0 .4-2.2.7-4.9.6-4.5-.1-4.8.1-4.5 2.1.5 2.8-.8 3.6-3.2 1.8-1.7-1.3-1.8-1.4-.1-1.5 1.9 0 2.4-1.9.5-2.1-4.5-.5-11.4.5-12.1 1.7-1 1.7-7.4 1.9-8 .1-.3-.9-.7-.9-1.8 0-2.2 1.8-12.5 2.1-11.4.4.3-.6-1.1-.9-3.5-.7-2.2.2-4-.1-4-.6s-.5-.6-1-.3c-2 1.3-.9 2.5 2.3 2.5 3.1 0 6.6 1.5 5.7 2.3-1.2 1-7.1 1.6-6.5.7.4-.6-.1-1.3-1-1.7-2-.7-4 1.8-2.3 2.8 1.8 1.2-.2 2.9-3.4 2.9-1.7 0-2.8-.3-2.4-.7.4-.5 1.3-.8 1.9-.8.7 0 1.2-1.1 1.2-2.4 0-2-.6-2.4-3.4-2.6-2-.2-4.6.4-6 1.4-1.6 1-2.2 1.1-1.7.3 1.1-1.9-2.3-4.3-5.6-4-1.7.2-3.2-.4-4.1-1.6-1.4-2-4.7-1.7-4.7.4 0 .6.5.8 1 .5.6-.3 1-.2 1 .3s-2.4.9-5.3.8c-4.8 0-5.2-.2-3.9-1.6 1.1-1.1 1.6-1.2 1.9-.3.3.9 1.1.6 2.6-.7 1.1-1.1 3.1-2 4.3-2 2.9 0 3.8-1.4 1.9-3-1.2-1-1.6-.9-2.1.3-.3.9-1.2 1.3-2.1 1-1.2-.5-1.4-.3-.8.7.6 1-.1 1.2-3.6.6-2.7-.4-3.9-.3-3 .3.9.6 0 .9-2.8.9-3 .1-4.4-.5-5.5-1.9-.9-1.4-1.6-1.7-2.1-.9-.4.7-1.9.9-3.4.6-1.4-.3-2-.3-1.3 0 .6.3 1.2 1 1.2 1.5 0 .6-.8.6-1.9-.1-1.1-.5-3.5-1-5.3-.9-2.7 0-3 .2-1.3.9 1.1.5 3.2.9 4.6.9 1.5.1 3.2.8 3.9 1.6 1 1.2.8 1.6-1.4 2.5-1.5.5-4.1.9-5.9.7-2.1-.1-3.1.2-2.9 1 .2 1.5-1.4 1.7-2.3.3-1.1-1.8-2.5-1.1-2.5 1.2 0 1.6-.3 1.9-.8 1-1.3-1.9-6.4.2-5.6 2.3.5 1.1 0 1.5-1.7 1.5-5.1 0-4.4 1.5.8 1.6 5.2.2 5.3.1 3.8-1.6-1.1-1.2-1.3-2-.6-2.5 1-.5 1.4-.1 1.3 1.5 0 .3.7 1.2 1.6 2 1.4 1.3 1.5 1.2.9-.2-.5-1.4 0-1.7 2.8-1.4 3 .2 3.3 0 2.2-1.3-.8-1-.8-1.3 0-.8.6.4 2.3.3 3.6-.2 2-.8 2.7-.6 3.1.5.4 1 0 1.4-1.2 1.2-1.3-.2-1.6.3-1.4 2 .4 2.4 1.2 2.2-13.3 2.8-8.5.3-8.7.3-8 1.4.3.5 1.3.7 2.3.4 1.4-.5 1.5-.4.2.5-.8.6-2.2.8-3 .6-.8-.2-2.2 0-3 .5-1.3.8-1.3 1.1.2 2.7 1.7 1.6 1.8 1.6 1.9-.2 0-1.1.3-1.4.6-.7.2.6 1 .9 1.6.5.7-.4.6 0-.1 1-1.2 1.4-.7 1.9 4.5 4.5 3.2 1.6 8.8 4.5 12.5 6.5 3.7 2.1 7.6 3.7 8.8 3.7 1.1 0 2 .4 2 .9 0 .8 6.1 3.4 8.2 3.6.4 0 1.3.6 1.9 1.3.7.6 1.7 1.2 2.3 1.2.5 0 3.4 1.2 6.5 2.6 3.1 1.4 6.5 3 7.6 3.4 28.4 11.4 70.7 24 82 24.3 2.8.1 5.3.5 5.6 1 1 1.4 16.4 4.1 18.7 3.2.7-.2 1.1-.1.8.3-1 1.6 23.3 4.6 37.4 4.7 5.2 0 9.8.4 10.1.8 1.1 1.5 42.7 2 58.4.8 26.4-2.1 42.2-3.8 52.5-5.6 4.1-.8 11.6-2.1 16.5-3 5-.9 11.3-2.2 14-3 2.8-.7 12.3-3.2 21.3-5.6 8.9-2.3 16.2-4.5 16.2-4.8 0-.3 1.1-.7 2.5-.7 3.5-.2 25.7-8.3 27.8-10.2.9-.8 2-1.3 2.3-1 .5.6 9.6-2.8 22.2-8.2 2.8-1.3 5.2-2.7 5.2-3.1 0-.5 1-.9 2.2-.9 2.1 0 2.1 0 .2-1.5-1.5-1.1-1.6-1.4-.4-1.5.9 0 2.1.5 2.8 1.2.9.9 1.2.7 1.2-.9 0-1.1.7-2.3 1.5-2.7.9-.3 1.5 0 1.5.9 0 1.2.7 1.1 3.8-.4 2-1 4.4-2.2 5.2-2.5.8-.3.3-.4-1.1-.1-1.8.3-3.2-.2-4.5-1.6-2.2-2.4-2.2-2.6.3-4.4 2.2-1.6 1.8-2.1-2.4-3-2.1-.4-3.3-.3-3.3.4 0 .6-.9 1.1-2 1.1s-2 .7-2 1.5-.4 1.5-1 1.5c-1.4 0-1.2-1.3.4-3.6.8-1 1.8-1.6 2.2-1.2.4.4 1.2.4 1.9-.2 1.7-1.4 7.7-1.5 10.2-.2 1.2.7 3.5 1.2 5.2 1.2 1.7 0 3.1.5 3.1 1.1 0 .6-.8.9-1.9.6-1-.2-2.6 0-3.5.5-1.2.7-1.6.5-1.6-.7 0-.8-.7-1.5-1.6-1.5-.8 0-1.3.4-1 .9.3.5 0 1.1-.8 1.4-.8.3-1.3 1.3-1.2 2.1.3 1.8 1.6 3.4 1.6 1.9 0-.7 1.2-.8 3.5-.3 3.6.8 10-1.6 10-3.8 0-2.2 4.4-6.2 6.2-5.5 1.5.5 1.5.3-.2-1-1.9-1.5-1.9-1.6 1-2.2 1.7-.4 3.6-.8 4.3-1.1.7-.2 2.5.1 4 .6 2.5.9 2.6.9.8-.5-1.9-1.4-1.8-1.5 1-1.5 5.6 0 20-8.6 43-25.5 63.8-47 116.5-109.9 151.1-180.5 26.3-53.4 41.5-104.9 49-166 2.6-21.1 2.6-90.1 0-111-1.9-14.9-4.5-31.1-5.2-31.8-.2-.2-3 1-6.2 2.7-3.2 1.7-6.3 3.1-7 3.1-.6 0-2.5 1.1-4.1 2.5-1.6 1.3-3.2 2.2-3.4 1.9-.6-.5-12.8 5.5-13.8 6.7-.3.3-1.5.9-2.7 1.3-1.3.4-2.3 1.2-2.3 1.7s-.6.9-1.4.9c-.7 0-1.9.7-2.6 1.5-.6.8-1.5 1.4-1.8 1.3-1.9-.2-3.3.5-6.1 3.1-1.7 1.6-3.1 2.5-3.1 2 0-.4-1.1.3-2.5 1.6-1.3 1.4-3.1 2.5-4 2.5-.8 0-1.5.5-1.5 1.1 0 .5-.4.7-1 .4-.5-.3-1-.1-1 .6 0 .6-.8.9-1.9.6-1.4-.3-1.8-.1-1.4.9.3.8-.5 1.6-2.4 2-1.5.3-3.4 1.3-4 2.2-1.2 1.4-1.3 1.4-1.3-.4-.1-1.7-.4-1.5-2.3.8-1.3 1.6-3.3 2.8-4.5 2.8-1.2 0-2.2.5-2.2 1 0 .7-.7.7-1.7.2-3.2-1.5-7.3.1-7.3 2.9 0 2.4-5.5 2.7-6.4.3-.3-.8-.2-1.2.4-.9.6.3 1-.2 1-1.2 0-1.5.2-1.6 1-.3s1 1.2 1-.3c0-1.3-.8-1.7-3.5-1.7-3.8 0-4.2-.5-2-3.4 2.4-3.2 1.7-3.9-1.2-1.1-1.7 1.5-3.4 2.3-4.5 1.9-1.2-.3-1.8 0-1.8 1 0 .9-.5 1.6-1 1.6-.7 0-.7-.6 0-1.9 1.4-2.6 1.3-2.8-1-3.4-1.1-.3-2-.1-2 .5 0 .5-.4.6-1 .3-.6-.4-.7.1-.3 1.1.5 1.4.1 1.5-2.8.9-1.9-.4-4-1.2-4.7-1.8-.8-.7-1.6-.7-2-.1-.4.5-1.5 1-2.5 1-2.3.2-2-3.7.3-4.3 1.3-.4 1.3-.3 0 .7-1.5 1.1-.7 1 5-.7 1.3-.4 1.3-.4 0 .6-1.6 1.1-.8 2.7.9 1.6 2-1.2 1.2-3.5-1.3-3.5-1.3 0-2.7-.8-3.1-1.8-.6-1.6-.8-1.6-2.1.3-.8 1.1-1.8 1.9-2.2 1.8-.4-.1-.7.6-.6 1.6 0 1.2-.5 1.7-1.3 1.4-.8-.3-1.1-.8-.9-1.1.7-.6-1.3-3.2-2.5-3.2-.5 0-.9 1-1 2.2v2.3l-1.6-2.3-1.6-2.2-2.1 2.3c-3.1 3.5-5.1 3.9-5.4 1.2-.2-2.7 2.1-5 4.2-4.2 2.5 1 2.6-2.2.2-4.8-2.3-2.4-2.4-2.5-2.9-.5-.3 1.1-.1 1.8.4 1.4.5-.3.9.2.9 1.1 0 .9-.4 1.3-1 1-.5-.3-1-.1-1 .6 0 .8-.4.8-1.2.2-1.6-1.2-4.8-1.3-4.8-.1 0 .4-.7.8-1.5.8s-1.5-.7-1.5-1.5c0-.9.6-1.5 1.3-1.4.6.1 2.1.1 3.2 0 1.5-.1 1.7-.3.6-1-.7-.5-2.1-.6-3.1-.4-1.2.3-2-.2-2.3-1.4-.4-1.6-.5-1.6-.6 0-.1 1.3-.7 1.6-2.6 1.1-1.6-.4-2.5-.2-2.5.6 0 .6.4.8 1 .5.6-.4.9.5.8 1.9-.2 2.7-1.8 3.7-1.8 1.1 0-.8-.4-1.5-1-1.5-.5 0-1-.7-1-1.5 0-1.9-.5-1.9-3.4 0-2 1.4-2.5 1.4-3.5.1-.7-.8-1-2-.6-2.6.3-.5 0-1-.7-1-2.3 0-3.9 1.6-3.2 3.3.3 1 .1 1.7-.5 1.7s-1.1-.7-1.1-1.5c0-.9-1-1.5-2.6-1.5-2.2 0-2.4.3-1.9 2.2.5 1.8.4 2-.4.8-.9-1.3-1.2-1.2-2.6.5-1.1 1.4-1.3 1.5-.9.4.3-1 0-2-.7-2.5-.8-.4-1-.3-.5.4 1.1 1.9-.9 1.4-6-1.3-5.7-3-10.5-2.9-11.9.3-.5 1.2-1.3 2.2-1.6 2.2-.9 0-.6-2.1.5-3.8.7-1.2.4-1.2-1.5-.1-2.3 1.2-2.3 1.1-.9-.6 1.4-1.7 1.3-1.8-1.2-1.2-1.8.5-3.2.2-4.2-.9-1.7-1.6-2-1.2-1.6 2.1.2 1.7 0 1.7-1.4.5-1-.7-1.5-1.9-1.2-2.7.3-.8.2-1.1-.3-.8-.5.3-1.3 0-1.7-.6-.3-.6-.1-1.5.6-1.9.8-.5-.6-1.2-3.6-1.8-2.7-.6-5.1-.8-5.4-.4-.3.4-2.4.7-4.6.7-3-.1-4 .3-3.7 1.2.6 1.6 1.9 1.7 2.6.3.3-.6.4-.5.3.2-.2.7-1.5 1.3-2.9 1.2-2.9-.1-3.2.3-1.8 2.5.6.9 1.1 1 1.5.2 1.2-1.8 3.6-1.2 3.6.9 0 2.4-5.7 3.7-8.8 2.1-2.3-1.2-3.5-.1-2.6 2.3.3.9.1 1.6-.6 1.6-.6 0-.9.8-.6 1.8.5 1.6.2 1.8-2.4 1.4-2.1-.3-3 0-3 .9 0 .7-.7.3-1.6-.9-.9-1.3-2.2-2.1-2.9-1.8-.7.2-1.6-.1-1.8-.8-.4-1-1.6-1.2-4.9-.5-2.4.4-4.6.8-5 .9-.5 0-.8.6-.8 1.3 0 1.4-8.6 1.8-10.7.4-.8-.5-1.1.3-.8 2.7.3 3.5.3 3.5-3.4 3.1-2.1-.2-4.4 0-5.1.5-.8.5-2.1.5-3 0-1.4-.7-1.6-.4-1.2 2.1.4 2.8.5 2.8 1.9 1.2 1-1.3 1.6-1.5 1.9-.6.3.7 1.2 1.3 2 1.3s1.4.4 1.4 1c0 .9-1.7 1.4-4.7 1.3-.7-.1-1.3.3-1.3.8s1.2.9 2.6.9c3 0 6.4 1.6 6.4 3.1 0 .6-.4.8-.9.5-.5-.4-1.1 0-1.4.6-.3 1-.7 1-1.9 0-.9-.7-2.3-1-3.2-.6-1 .4-1.6.1-1.6-.9 0-.9-.4-1.8-.9-2.1-.5-.4-.7.3-.4 1.4.4 1.6 0 2-2.1 2-1.6 0-2.6-.6-2.6-1.4 0-1.7-2.7-2.9-3.5-1.6-.4.6-.3 1.4 0 2 .3.5 0 1-.8 1s-1.7.9-2 2c-.3 1.4-1.1 1.8-2.8 1.5-1.2-.3-2.8 0-3.5.6-.7.6-1.8.8-2.4.4-.6-.4-3.3-.4-6 0-3.6.5-4.7 1-4.3 2.1.4 1 0 1.2-1.3.7-1.1-.4-1.5-.3-1.1.4.4.6-.2 1.3-1.3 1.6-1.5.4-2 0-2-1.4 0-1-.3-1.9-.7-1.9-1 0-1 5.1 0 6.7.9 1.4-1.3 5.3-3 5.3-1.8 0-2.5 1.8-1.4 3.8.6 1.1.6 2.4 0 3.3-.7 1.1-.9 1.1-.9-.4 0-2.7-2.4-1.5-2.8 1.4-.2 1.3-.6 3.1-.9 3.9-.4.8-.8 3.6-.8 6.3-.2 4.7-1.4 7.4-2.2 4.9-.7-1.8-2.3-.4-2.3 1.9 0 1 .7 1.9 1.5 1.9s1.5.9 1.5 2c0 2.5-2 2.7-2.1.2 0-.9-.3-1.2-.5-.5-.3.6.2 2.6 1.1 4.3.9 1.8 1.4 3.4 1.1 3.8-.3.3-.6 0-.6-.6 0-.7-.5-1.2-1.1-1.2-.7 0-.9 1.9-.7 5 .3 2.8.1 4.7-.3 4.3-1.1-1.1-1.2-15.8-.3-43.3 1.1-35.2-1.3-58.1-7.8-77-4.9-13.9-6.2-19.2-8.3-33.5-.9-6.1-2.6-14.6-3.6-19l-1.9-8 3.5-3c4-3.5 4.2-4.6 1.5-8.3-1.1-1.5-3.7-7.9-5.9-14.2-7.4-21.4-20.7-48-24-48-.4 0-4.2-3.1-8.3-6.9-6.3-5.7-8.5-7.1-12.8-8-2.8-.6-6-1.1-7.1-1.1-1.1 0-4.3-1.2-7.1-2.6-3.9-2-6.1-2.5-9.1-2.1-3.3.5-4.3.1-6.7-2.2-1.6-1.5-5.3-3.7-8.2-5-11.1-4.8-10.3-3.9-10.6-11.5-.2-4.8.3-9 1.7-13.6 1.8-5.8 4-17.8 4.1-21.8 0-.6.9-1.2 2-1.2 2.6 0 2.7-.1 4.3-15 .9-8.5 1-13.3.3-15.1-.6-1.8-.5-4.8.6-10.1 1.3-6.5 1.3-8 0-11.9-.8-2.4-1.9-5.1-2.4-5.9-.4-.8-1.7-3.3-2.8-5.6-2.5-5.3-9.6-11.8-16.2-14.9-2.9-1.3-6.4-3.3-7.8-4.5-3.8-3-17.2-5.5-22.5-4.1zM594 395.5c2.3 11.4 3.7 17 8.9 36.9 1.7 6.6 4 16.9 5.1 23 1.1 6.1 3.9 18.5 6.4 27.6 5.7 21.3 9.6 38.6 9.7 43 .3 7.4-.3 9.1-5.6 17-3 4.5-5.5 9.4-5.6 10.8l-.1 2.7-.8-2.9c-.5-1.6-.7-5.6-.5-9 .3-5.3-.1-7-3-13.1-4.2-8.9-4.9-10.7-4.6-12.3.1-.8-.3-2-.9-2.7-.7-.8-1.3-3.6-1.4-6.2-.1-2.6-.9-5.9-1.7-7.3-.8-1.4-1.4-5.5-1.5-9.5 0-4.8-.9-9.4-2.7-14.7-1.7-4.8-2.7-9.7-2.7-13.4 0-6.8.8-6.7 1.5.1.7 6.3 2.3 12.4 4.1 15.2 1.8 2.9 6.4 3 8.8.4 1.5-1.6 1.6-2.5.6-6.3-.7-2.3-2-6.3-3.1-8.8-1-2.5-3.9-16.4-6.4-31-2.5-14.6-5.4-31.5-6.5-37.5-2-11.2-2.7-22.5-1-16 .4 1.6 1.8 7.9 3 14zm-6.2 28c.7 3.3 1.8 10.7 2.7 16.5.8 5.8 1.8 11.8 2 13.5.5 2.8.4 2.7-1.5-1-1.5-2.8-2.4-7.1-3.1-14.5-.8-9.8-1.2-12.8-2.5-20.5-.3-2.1-.2-2.5.4-1.5.5.8 1.4 4.2 2 7.5zm183.2 14c0 .8-.9 1.5-2 1.5s-2-.7-2-1.5.9-1.5 2-1.5 2 .7 2 1.5zm-5 2.5c0 .5-.4 1-1 1-.5 0-1-.5-1-1 0-.6.5-1 1-1 .6 0 1 .4 1 1zm8.8 2.5c-.3.3-.9-.2-1.2-1.2-.6-1.4-.5-1.5.5-.6.7.7 1 1.5.7 1.8zm45.5-1c.4.8.3 1.6-.1 1.9-.4.3-.9-.4-.9-1.5-.2-2.3.3-2.5 1-.4zm-467.9 1.1c.3.8.2 1.2-.4.9-.6-.3-1-1-1-1.6 0-1.4.7-1.1 1.4.7zm414.6.4c0 .5-.5 1-1.1 1-.5 0-.7-.5-.4-1 .3-.6.8-1 1.1-1 .2 0 .4.4.4 1zm-414.3 4.5c0 .8-.6 1.5-1.4 1.5-.7 0-1.3.7-1.3 1.6 0 .9-.6 1.4-1.2 1.1-.7-.2-1.2-.8-1.1-1.3.5-3 .9-4 1.7-4.6 1.4-.9 3.3.1 3.3 1.7zm378.8-.5c-.3.5-1 1-1.6 1-.5 0-.9-.5-.9-1 0-.6.7-1 1.6-1 .8 0 1.2.4.9 1zm110.5 0c0 .5-.5 1-1.1 1-.5 0-.7-.5-.4-1 .3-.6.8-1 1.1-1 .2 0 .4.4.4 1zm-43 .4c0 .3-.4.8-1 1.1-.5.3-1 .1-1-.4 0-.6.5-1.1 1-1.1.6 0 1 .2 1 .4zm-78.2 3.9c-.7.8-2.1 1.4-3 1.4-1.4 0-1.5-.3-.7-1.4.6-.7 2-1.3 3.1-1.3 1.6 0 1.7.2.6 1.3zm15.2.1c0 .2-.7.9-1.5 1.6-1.3 1.1-1.4 1-.9-.4.5-1.4 2.4-2.3 2.4-1.2zm103.7 1.8c-.3.8-.6.5-.6-.6-.1-1.1.2-1.7.5-1.3.3.3.4 1.2.1 1.9zm15.8-.2c.3.6-.1.7-.9.4-1.8-.7-2.1-1.4-.7-1.4.6 0 1.3.4 1.6 1zm-131.1 3.5c.3.8.1 1.5-.4 1.5-.6 0-1-.7-1-1.5s.2-1.5.4-1.5.6.7 1 1.5zm161.2-.6c.8-.7 1.4-.7 1.4-.1 0 1.2-2.6 2.3-3.4 1.5-.3-.4-.6-1.1-.5-1.7 0-.6.3-.5.6.2.4 1 .8 1 1.9.1zM350 460c1.8 1.2.2 1.2-2.5 0-1.3-.6-1.5-.9-.5-.9.8 0 2.2.4 3 .9zm68.4 4.2c-.8 2.8-1.2 3.3-2 2.5-.9-.8.6-4.7 1.7-4.7.6 0 .7 1 .3 2.2zm319.6.8c0 .5-.4 1-1 1-.5 0-1-.5-1-1 0-.6.5-1 1-1 .6 0 1 .4 1 1zm-21.7.7c-.7.2-1.9.2-2.5 0-.7-.3-.2-.5 1.2-.5s1.9.2 1.3.5zm-26.8 7.1c-.3.3-1.1 0-1.8-.7-.9-1-.8-1.1.6-.5 1 .3 1.5.9 1.2 1.2zm-84.6 2.6c1.1 2.4 1.1 3-.2 4.3-1.8 1.8-3.5 1-4.8-2.4-.6-1.8-.6-3 .2-4 1.6-1.9 3.1-1.2 4.8 2.1zm71.6-.4c.3.5.1 1-.4 1-.6 0-1.1-.5-1.1-1 0-.6.2-1 .4-1 .3 0 .8.4 1.1 1zm-5.5 5c0 .5-.4 1-1 1-.5 0-1-.5-1-1 0-.6.5-1 1-1 .6 0 1 .4 1 1zm-315.7 7c-.3 1.1.1 2.8.8 3.8 1.3 1.5 1.2 1.6-.3.4-1.4-1.1-1.8-1-2.7.5-.8 1.5-1 1.3-.8-1.2.2-2.3 1.9-5.2 3.4-5.5 0 0-.1.9-.4 2zm51.5 8.7c1.3 4.3 4.1 13.2 6.2 19.8 3 9 4 13.8 4.1 19.3.2 6.9.4 7.4 4.1 11.6 3.7 4.2 3.8 4.7 3.2 9.5-.4 3.6-.2 5.8.8 7.4.8 1.3 1.2 3.5.8 5.6-.4 3-.7 2.5-2.9-5.5-1.7-6.2-3.8-10.8-6.7-15.2-2.4-3.4-4.1-6.2-3.8-6.2.3 0-.8-1.2-2.5-2.6-1.7-1.4-3.1-3.3-3-4.2 0-1.4.2-1.4.6-.2.8 2.1 5.1 6 6.6 6s1-13.2-.5-14.1c-.5-.3-1.1-1.5-1.2-2.5-.2-1-.9-1.8-1.6-1.6-.6.1-.9-.2-.5-.7.3-.6-.2-2.2-1.1-3.6-1.5-2.3-1.5-2.5 0-1.9 1 .4 1.6.1 1.6-.9 0-2-1.7-3.1-2.3-1.5-.2.7-.7 1-1.1.6-.4-.3-.3-1.5.3-2.6 1.2-2.3.2-6-2.2-8.1-1.7-1.3-2-.4-3 8.4-.2 1.6-.5.3-.5-3-.2-8.1.9-22.5 1.8-22 .3.2 1.6 3.9 2.8 8.2zM404 519c0 .5-.4 1-1 1-.5 0-1-.5-1-1 0-.6.5-1 1-1 .6 0 1 .4 1 1zm-.3 4.2c-.3.8-.6.5-.6-.6-.1-1.1.2-1.7.5-1.3.3.3.4 1.2.1 1.9zm248.8-.2c.3.5.1 1-.4 1-.6 0-1.1-.5-1.1-1 0-.6.2-1 .4-1 .3 0 .8.4 1.1 1zm-.5 12c0 .5-.5 1-1.1 1-.5 0-.8.4-.5.9.3.5-.1 2.4-1 4.2l-1.5 3.4.5-3.4c.4-1.8.6-4.2.6-5.2 0-1.1.7-1.9 1.5-1.9s1.5.4 1.5 1zm-273 11.6c1.9 3.7 2.8 32.1.9 29-1.2-1.9-1.3-2.9-2.4-20.1-.4-6.1-1.2-11.4-1.9-11.8-.7-.6-.6-.7.4-.5.8.3 2.2 1.8 3 3.4zm246.7 19.6c1.3 1.7 2.2 6.8 1.2 6.8-.4 0-.9-1.4-1.1-3.2-.2-2.5-.9-3.4-2.8-3.9-2.2-.6-2.2-.7-.4-.8 1.2-.1 2.6.5 3.1 1.1zM413 568.5c1.9 5 2.1 8 .2 3.7-1-2.4-2.5-4.8-3.3-5.3-1.1-.7-1.1-.9.4-.9 1 0 2.2 1.1 2.7 2.5zm208.1 3.6l-1 3.4.4-3.5c.4-4.5.4-4.4 1.1-3.8.3.3.1 2.1-.5 3.9zm5.9 6.3c-.5 1.5-1 3.6-1 4.7 0 2.2-3.6 7.5-8.7 12.8-4.8 5-4.4 2.5.5-3.7 1.2-1.5 3.3-4.1 4.7-5.8 1.4-1.8 2.5-4.5 2.5-6.2 0-4 1-6.6 2.2-5.4.5.5.5 2-.2 3.6zM424.2 584c2.1 0 2.5.4 2.3 3-.1 1.7-.5 3.3-1 3.8-.4.4-.5 0-.3-.8.7-2-.9-5-2.7-5-1.5 0-7.5-5.6-7.5-7.1 0-.6 1.5.6 3.4 2.5 2.1 2.3 4.3 3.6 5.8 3.6zm-41.3.3c.1.5-.3.5-.9.2-.5-.3-1-1.6-.9-2.8 0-2.1.1-2.1.9-.2.5 1.1.9 2.4.9 2.8zm233.7-1.4c-.8 1.2-6.6 3.2-6.6 2.3 0-.5 1.5-1.3 3.3-1.9 1.7-.5 3.3-1.1 3.5-1.2.2 0 .1.3-.2.8zm-8.2 12c-.4 1.7-.9 3-1.1 2.7-.3-.2-.2-1.9.2-3.6.9-4.1 1.7-3.3.9.9zM425 600.2c0 3.5-.3 4.8-.9 3.9-.5-.8-.7-2.1-.3-2.9.3-1 .1-1.3-.6-.8-.7.4-1.2.1-1.2-.8s.5-1.6 1-1.6c.6 0 .9-.3.9-.8-.2-1.2.1-2.2.6-2.2.3 0 .5 2.4.5 5.2zm-22.2 2.4c1.8.8 3.2 1.7 3.2 2 0 .5-7.1-2.4-7.9-3.1-1-1.1 1.8-.4 4.7 1.1zm203.9.6c-.3.8-.6.5-.6-.6-.1-1.1.2-1.7.5-1.3.3.3.4 1.2.1 1.9zm-185.3.3c-.7 1.6-2.4 2.1-2.4.6 0-.8.7-1.3 2.7-2 .1-.1 0 .6-.3 1.4zm-9.9 2.5c.8 1.3-.5 1.3-2.5 0-1.3-.8-1.3-1 .2-1 .9 0 2 .4 2.3 1zm14.7 3c.3 1.7.1 3.3-.3 3.5-.4.3-.9-1.1-1.1-3-.5-4.3.8-4.7 1.4-.5zm179.5-.8c-.3.8-.6.5-.6-.6-.1-1.1.2-1.7.5-1.3.3.3.4 1.2.1 1.9zm-179 15c-.3.8-.6.5-.6-.6-.1-1.1.2-1.7.5-1.3.3.3.4 1.2.1 1.9zm178 8.5c-.3 1-.5.4-.5-1.2 0-1.7.2-2.4.5-1.8.2.7.2 2.1 0 3zm-87.3 7c.5 4.9.4 7.3-.3 7.3s-1.1-2.9-1.1-7.7c0-4.2.2-7.4.4-7.2.2.2.7 3.7 1 7.6zm-1.9 22.2c.3.5.1 1.2-.5 1.6-.5.3-1-.1-1-.9 0-1.8.6-2.1 1.5-.7zm11.6 28.4c-1 .9-1.1.8-.5-.6.3-1 .9-1.5 1.2-1.2.3.3 0 1.1-.7 1.8zm-87.5 32.8c.7 1.1 1.6 12.8 1.6 19.4-.1 1.6-.1 4.3-.1 6 0 4.5 0 4.7-.3 8-.2 1.6-.7 3.5-1.1 4.2-.4.6-.4 1.9 0 2.9.4 1.2.3 1.5-.5 1-.7-.4-1.2-.1-1.2.8s-.4 1.6-.8 1.6-.8.8-.9 1.7c0 1-.8 4.3-1.8 7.3-.9 3-1.8 7.8-1.9 10.5-.1 2.8-.5 5.6-.9 6.2-.4.6-.3 3.1.2 5.6.4 2.5.5 5.1.1 5.8-1.2 1.9-2.3-8.5-2.2-21.6 0-12.6 1.3-22.9 3.7-30.5 1.2-3.8 2.9-15.9 3.7-27.3.2-2.8 1.2-3.5 2.4-1.6zm10.5 16.2c-.1 1.2-1.5.9-1.9-.4-.3-.6.1-1 .8-.8.6.3 1.1.8 1.1 1.2zm-13.4 100.4c-.3 1-.5.4-.5-1.2 0-1.7.2-2.4.5-1.8.2.7.2 2.1 0 3zm1 9.5c-.3.7-.5.2-.5-1.2s.2-1.9.5-1.3c.2.7.2 1.9 0 2.5zM604 854c0 .5-.4 1-1 1-.5 0-1-.5-1-1 0-.6.5-1 1-1 .6 0 1 .4 1 1zm-163.8 15.5c-.8 1.2-2.1-6.4-2-11.5 0-2.3.5-1.1 1.3 3.5.7 3.8 1 7.4.7 8zm104.2 11.7c-.6 1-.4 1 .7 0 .7-.6 2.6-1.2 4.3-1.2 2.8 0 2.9.1 1 1.5-1.6 1.2-1.7 1.4-.2 1.5 2.2 0 3 2.7 2.7 9.7-.2 6.1-1.7 12.1-1.8 7.5-.1-1.3-.6-3.2-1.1-4.2-.7-1.2-.7-2.8 0-4.4.6-1.8.6-2.6-.1-2.6-.6 0-1.3.9-1.6 2-.6 2.3-1.9 2.6-2.6.6-.3-.8.8-1.9 3-3 3.3-1.6 4-3.5 1.5-4.4-.7-.2-1.2.3-1.2 1.2 0 .9-.7 1.6-1.5 1.6s-1.5.4-1.5 1c0 .5-.7 1-1.6 1-.8 0-1.2.4-.9 1 .3.6-.5 1-1.9 1s-2.7-.4-3-.9c-.7-1 1.7-3.3 3-2.9 1.7.4 5.2-1.3 5.8-2.9.8-2.1-.1-3-1.6-1.5-.7.7-2.3 1.2-3.7 1.1-2.4 0-2.4-.1-.6-1 1.5-.7 1-.8-1.9-.4-2.2.2-4.4 1.1-4.8 2-.5.8-1.6 1.5-2.3 1.5-.8 0-1.5.3-1.5.6 0 1.1 2.9 3.4 4.4 3.4.9 0 1.6.4 1.6 1 0 1.1-3.9 1.3-6.4.4-1.9-.7-1.2-5.3 1.2-7.2.9-.6 1.1-1.2.5-1.2-.7 0-1.8.7-2.7 1.5-1.7 1.7-4.2 2-5.1.5-.7-1.1 6-3.1 13.5-4 3-.4 5.9-.8 6.3-.9.5 0 .5.5.1 1.1zM513 885c0 .5-.7 1-1.5 1s-1.5.4-1.5 1c0 .5 1.6 1 3.5 1 3.4 0 4.7-1.3 2.3-2.3-.7-.3-.4-.6.7-.6 1.1-.1 3.1-.4 4.5-.7 2.4-.5 2.5-.5.5 1.1-1.9 1.6-1.9 1.6.9.9 2.1-.5 2.7-.4 2.2.5-.4.7 0 1.1 1.1 1.1 1.2 0 1.8.8 1.9 2.5.1 1.4-.2 2.5-.7 2.5-.5 0-.9-.6-.9-1.3 0-1.7-4.4-4.1-6.2-3.4-.7.3-.3.6 1 .6 1.2.1 2.2.5 2.2 1.1 0 .5-.7.7-1.5.4-.8-.4-1.5-.1-1.5.5 0 .7-.9.5-2.5-.5-1.3-.8-2.8-1.3-3.4-1-.5.3-2.2.1-3.7-.4-2-.8-2.9-.8-3.5.1-.4.7-1.9 1-3.8.6-3-.6-5.2.6-2.9 1.7.9.4.8.5-.2.4-2.2-.2-7.3 1.3-8.9 2.6-1.2.9-1.3.8-.7-.2.7-1.1.4-1.2-1.3-.3-1.1.7-2.1 1.6-2.1 2.1 0 .6-.5 1-1.1 1-.8 0-.8-.4 0-1.4 1-1.1.8-1.6-.7-2-2.6-.9-5.4.3-4.8 2 .3.7.1 1.6-.4 1.9-.6.4-1-.4-1-1.5 0-1.9-.4-2.1-2.5-1.6-1.8.5-2.5.2-2.5-.8 0-1.5 3-2.6 7.5-2.6 1.7 0 5.5-1.2 8.5-2.6 7.3-3.4 23-5.7 23-3.4zm-175.5 8c1.8.8 1.7.9-.7.9-1.4.1-2.9.7-3.1 1.3-.4 1-.8 1-1.5-.1-.8-1.1-1.4-1.2-2.4-.4-.7.6-3.5 1.1-6.3 1.1-5.3.1-4.8-.4 2.5-2.4 5.3-1.5 8.8-1.6 11.5-.4zm187.2-.4c-.3.3-1.2.4-1.9.1-.8-.3-.5-.6.6-.6 1.1-.1 1.7.2 1.3.5zm17.8 1.2c-.3.3-1.1 0-1.8-.7-.9-1-.8-1.1.6-.5 1 .3 1.5.9 1.2 1.2zm-6.5.2c-2 1.3-3.3 1.3-2.5 0 .3-.6 1.4-1 2.3-1 1.5 0 1.5.2.2 1zm-193 1.4c0 .2-1.7.3-3.7.3-3.2.1-3.4 0-1.3-.6 2.1-.7 5-.4 5 .3zm188.4-.2c-.7 1-7.6 2.8-8.6 2.2-.4-.3-.8-1.1-.8-1.9 0-1 1.3-1.3 4.9-1.2 2.7.1 4.7.5 4.5.9zm53.6 4c0 .9-.3 1.9-.7 2.1-.5.3-.8-1-.9-2.9 0-2.1.3-3 .8-2.2.4.7.8 2.1.8 3zm-69.9-2.3c-.7.5-.9 1.5-.5 2.6.6 1.5.4 1.7-1 1.2-1-.4-2.4-.7-3.2-.7-.8 0-1.4-.5-1.4-1 0-.6.7-1 1.6-1 .8 0 1.3-.3 1.1-.8-.3-.4.6-.8 2-.9 1.5 0 2.1.2 1.4.6zm29.2 1.1c-.3 1.2-.8 1.9-1.1 1.6-.5-.6.5-3.6 1.2-3.6.2 0 .2.9-.1 2zm-99.8 4.1c.3 2.4.5 5.4.5 6.7 0 1.5 1.1 2.9 3.3 4.2 3.8 2.4 2.9 2.7-1.4.4-1.7-.8-3.3-1.3-3.7-1-.3.3 0 .6.6.6.7 0 1.2.7 1.2 1.5s-.4 1.5-1 1.5c-.5 0-1 1.2-1.1 2.7l-.1 2.8-.8-2.5c-1.2-3.7-1.1-13.9.1-18.3 1.3-4.7 1.7-4.4 2.4 1.4zm32.9-4.2c.3.5-.3 1.1-1.4 1.4-1.3.3-2 0-2-.9 0-1.5 2.6-1.9 3.4-.5zm13.6 1.2c0 .5-.4.9-1 .9-.5 0-1-.7-1-1.6 0-.8.5-1.2 1-.9.6.3 1 1 1 1.6zm44-.6c-.7.9-1.5 1.3-1.9 1-.3-.3.1-1 .9-1.5 2.1-1.4 2.4-1.2 1 .5zm-14.7.2c-.7.2-1.9.2-2.5 0-.7-.3-.2-.5 1.2-.5s1.9.2 1.3.5zm9.4-.1c-.3.3-1.2.4-1.9.1-.8-.3-.5-.6.6-.6 1.1-.1 1.7.2 1.3.5zm-25.2 1.4c.3.5 1.3.6 2.2.3 1.1-.5 1.4-.3.9.6-.5.8-1.8 1-3.3.6-1.5-.3-2.2-.2-1.9.4.8 1.3-2.6 3.1-5.8 3.1-1.4 0-2.8.4-3.1 1-.3.6.4 1 1.6 1 1.2 0 2 .3 1.6.6-.3.3-2 .3-3.7-.1-2.9-.6-3-.8-1.3-2 1.5-1.1.4-1.3-7.2-1.4-4.9-.1-9.3-.5-9.8-1-.6-.6.5-1 3.1-.9 2.2 0 4.5-.3 5.1-.6.6-.4 1.1-.2 1.1.4 0 1.8 11 .8 14.5-1.2 3.4-2 5.1-2.2 6-.8zm-243 4c.3.5.1 1-.4 1-.6 0-1.1-.5-1.1-1 0-.6.2-1 .4-1 .3 0 .8.4 1.1 1zm169.5.7c-.1 1.9-1.8 3.3-3.4 2.7-1.5-.6-1.5-.7.1-2 2-1.5 3.3-1.8 3.3-.7zm84.5.9c0 1-.1.9-8-.5l-5-.9 6.5.2c3.6.1 6.5.7 6.5 1.2zm104-.6c.3.6-.1.7-.9.4-1.8-.7-2.1-1.4-.7-1.4.6 0 1.3.4 1.6 1zm-92.4 1c.5 0 .9.4.9 1 0 .5-1.3 1-3 1-1.6 0-3 .5-3 1.1 0 1.1 7.2.8 14-.6 1.4-.3 1.9-.3 1.2.1-.6.3-1 1-.6 1.5.3.5-.7.9-2.3 1-1.5 0-3.7.3-4.8.5-3.1.8-3.8.8-6.9 0-1.8-.4-2.5-.3-2.1.4.3.5.1 1-.6 1-.6 0-.9-.8-.6-2 .7-2.7-.8-3.4-2.9-1.3-1.2 1.3-3.2 1.7-7.6 1.6-3.3-.1-5.6.2-5.3.8.3.5-.2.6-1.1.2-1-.3-1.5-.2-1.2.3.4.5-.7.9-2.3.9-1.6 0-2.9-.4-2.9-.9 0-.4-2.6-.5-5.7-.1-3.2.4-5.5.3-5-.1.9-.9 3.1-1.3 11.7-2 9.3-.7 11.7-1.3 9.9-2.5-1.1-.7-1.1-.9.5-.9 1.3 0 1.7.5 1.3 2-.4 1.7-.1 1.9 2.1 1.4 1.5-.4 3.6-1.2 4.7-1.8 1.1-.6 3.1-1.2 4.5-1.3 1.4-.1 2.6-.7 2.8-1.3.2-.6 1.1-.9 1.9-.6.8.3 1.9.6 2.4.6zm16.7 1.8c.2 1.3-.2 2.2-.9 2.2-1 0-1 .3-.1 1.2 1.7 1.7 1.5 3.3-.2 1.9-.7-.6-2-1-2.7-.8-.8.2-1 .2-.5-.1.4-.2.2-.9-.5-1.4-1.1-.8-1.1-.9.1-.5 1.6.4 4-1.5 4-3.3 0-.6-.8-.9-1.7-.7-4.5 1.3-9.4 1.7-10.6 1-.7-.5 1-1 4.3-1.4 7.7-.8 8.5-.7 8.8 1.9zm79.7-1.8c.3.5-.1 1-1 1s-1.3-.5-1-1c.3-.6.8-1 1-1 .2 0 .7.4 1 1zm-23.6 8.4c.1 6.8-.5 5.5-1.2-2.4-.3-3.8-.1-5.7.3-4.5.5 1.1.9 4.2.9 6.9zm29.7-6.9c1.9.8 3.7 1.4 4 1.4.3 0 .8.2 1.2.5 1.3 1.4-3.6.4-6.8-1.4-4.2-2.3-3.3-2.6 1.6-.5zm-217.8 1.7c2.1 1.3 3 2.4 2.3 2.6-.7.2-1.7-.1-2.1-.8-.4-.7-1.6-.9-2.8-.6-1.7.6-2.1.3-1.9-1.4.2-2.5.2-2.5 4.5.2zM505 908c0 .5-.5 1-1.1 1-.5 0-.7-.5-.4-1 .3-.6.8-1 1.1-1 .2 0 .4.4.4 1zm-21.3.6c-.3.3-1.2.4-1.9.1-.8-.3-.5-.6.6-.6 1.1-.1 1.7.2 1.3.5zm113 7.6c-.2 1.8-.4.6-.4-2.7 0-3.3.2-4.8.4-3.3s.2 4.2 0 6zM617 909c0 .5-.2 1-.4 1-.3 0-.8-.5-1.1-1-.3-.6-.1-1 .4-1 .6 0 1.1.4 1.1 1zm11 .9c0 .5-.9.7-2 .4-1.1-.3-2-.7-2-.9 0-.2.9-.4 2-.4s2 .4 2 .9zm11.4.9c.3.5-.8.9-2.5.9-1.9 0-2.5-.3-1.7-.9 1.7-1 3.5-1 4.2 0zM428.5 912c.4.6-.5 1-1.9 1-2.8 0-3.3.9-1.3 2.9 1 1 .9 1.1-.4.6-.9-.3-2.6.5-4.2 1.9-2.6 2.4-4 2.3-1.6-.1 1.6-1.6.2-3.3-2.7-3.3-1.4 0-2.3.4-1.9.9.3.6-.3 1.5-1.4 2-2.5 1.4-3.4 1.4-2.6.1.3-.6-.4-1-1.7-1-1.9-.1-1.8-.3 1.1-1.5 1.8-.8 4.6-1.5 6.2-1.5 1.5 0 3.4-.7 4.1-1.5 1.5-1.6 7.4-2 8.3-.5zm55.5 1.1c0 .6-.4.7-1 .4-.5-.3-1-1.1-1-1.6 0-.6.5-.7 1-.4.6.3 1 1.1 1 1.6zm148-1.1c0 .5-.2 1-.4 1-.3 0-.8-.5-1.1-1-.3-.6-.1-1 .4-1 .6 0 1.1.4 1.1 1zm14.9.6c.2.2-.7.4-2.2.4-1.4 0-2.9-.5-3.2-1-.6-1 4.2-.4 5.4.6zm-248.4.4c.3.5.1 1-.4 1-.6 0-1.1-.5-1.1-1 0-.6.2-1 .4-1 .3 0 .8.4 1.1 1zm216.6.4c-.9 1.1-.6 1.2 1.5.8 1.9-.3 2.2-.7 1.2-1.3-.9-.6-.7-.9.9-.9 1.2 0 2.7.9 3.3 2 .9 1.7.8 2-1 2-1.7 0-2 .4-1.5 2 .8 2.6-2 2.7-3.6.1-.7-1-2-1.6-3-1.4-.9.3-2.6 0-3.7-.6-1.8-1-2.1-.7-2.7 2.9-.9 5.1-3.4 8.3-8.8 10.8-6.2 2.9-10.5 6.8-12.6 11.6-3.1 6.7-10.1 13.4-10.1 9.6 0-.6-2.3-.7-5.9-.4-6.5.7-16.3-.8-25.1-3.8-3.4-1.2-5.6-1.5-5.8-.8-.7 2.1-2.2-.3-2.2-3.6 0-2.1 1.1-5.1 2.8-7.6 2.4-3.8 2.7-4 3-1.9.5 3.4 8.9 6.9 18.8 7.7 10 .8 17.8-1.2 23.2-6 2-1.8 4.4-3.3 5.2-3.3 2.1 0 7.1-3.3 6.5-4.3-.3-.4 1.3-2 3.4-3.5 2.2-1.5 4.7-4.2 5.6-6.2 1.4-3 2.1-3.4 4.8-3.1 2.1.1 3.1-.2 3-1-.2-.7.7-1.2 1.8-1.2 1.7 0 1.9.3 1 1.4zm-209.7.9c.4-.4.4.1 0 1.2-1 2.7-2.5 3.6-4.7 2.9-1.1-.3-2.7.2-3.9 1.3-1.8 1.5-2 1.5-1.6.2.5-1.3.1-1.5-2-1.1-2.4.5-2.5.3-1.4-1 1.4-1.8 6.2-3 6.2-1.7 0 .5 1.2.9 2.6.9 2.2 0 2.4-.3 1.8-2.2-.6-1.9-.5-2.1.8-1.1.8.7 1.8 1 2.2.6zm221.1-.3c.3.5 1.3.6 2.2.3 1.2-.5 1.4-.3.8.8-.7 1.1-.5 1.1 1-.1 1.7-1.4 1.8-1.3 1.2.4-.6 1.5-.4 1.7 1.5 1.3 2.7-.7 6.8.1 6.8 1.4 0 1.4-2.8 1.1-3.2-.3-.3-.9-.9-.8-2.2.5-1.7 1.6-1.7 1.7 0 1.7 2.7 0 8.4 2.3 8.4 3.3 0 .5.6.4 1.4-.2 1-.8 1.6-.9 2.1-.1.3.5 1.7.7 3 .4 1.3-.3 3.2-.1 4.2.6 1.6 1 1.5 1.1-.9.7-1.5-.2-2.5 0-2.2.4.3.5 1.4.9 2.5.9 1 0 1.9.4 1.9.9 0 2.1-1.8 1.9-5.3-.4-4.1-2.8-5.5-3.2-3.7-1 .9 1.1.5 1.1-2.1-.2-1.9-1-4.2-1.6-5.1-1.5-1 .2-1.8-.2-1.8-.8 0-.6-.5-.8-1.1-.4-.6.3-1.5.1-1.9-.6-.6-.9-1.3-.9-2.8-.1-1.7.9-2.3.8-3-.5-.5-.9-2.1-1.7-3.5-1.7-1.5 0-2.4-.3-2.1-.8.3-.5-.1-.9-.8-.9-.8 0-.6-.5.5-1.1.9-.6 2.6-.7 3.7-.4 2.9.9 2.4-.2-.7-1.9-1.9-1-2.3-1.5-1.1-1.6.9 0 1.9.4 2.3 1zm30.8.1c-.5.4-2.8 1-5.3 1.3-2.5.3-3.9.3-3.1 0 1.1-.5 1.1-.8 0-1.5-.9-.6.5-.9 3.9-.7 2.9.1 4.9.5 4.5.9zm12.8.3c-.7.8-1.8 1.3-2.5 1-.7-.3-1.8.2-2.5.9-.9 1.2-.9 1.5.1 1.4.7 0 2.6.1 4.2.1 2.8.2 2.9.3 1 1.6-1 .8-2.1 1.1-2.4.7-.3-.4-1.8-.8-3.5-.9-3.2-.2-6.1-2.2-3.3-2.2.9 0 2-.4 2.3-1 .4-.6-.7-.8-2.7-.5l-3.3.5 2.8-1.3c1.5-.7 4.6-1.4 6.9-1.6 3.6-.2 4 0 2.9 1.3zm16.9-.3c0 .4-1.2.6-2.7.3l-2.8-.4 2.5 2.1c1.4 1.1 2 1.8 1.3 1.5-.7-.4-2.1.1-3.2 1-1.8 1.6-1.8 1.9-.4 2.9 1.4 1.1 1.3 1.3-1 1.7-1.5.3-2.7.1-2.7-.3 0-.5.5-.9 1.2-.9.6 0 .8-.3.5-.7-.4-.3-.1-1.3.6-2.1 1-1.3.8-1.4-1.2-.7-1.6.5-2.1.4-1.7-.4.4-.6.3-1.1-.3-1.1-.5 0-1.3.4-1.6 1-.3.5-1.2 1-1.8 1-.7 0-.3-.7.8-1.6 1.9-1.5 1.9-1.5-.8-1-1.9.3-2.7.1-2.4-.7.2-.6 1.6-1.3 3.1-1.4 1.4-.1 2.4.2 2.1.8-.6.8-.1 1 3.8 1.3.6.1 1.3-.5 1.3-1.2.2-1.9.3-2 2.9-2 1.4 0 2.5.4 2.5.9zm-392.5.9c.3.4 1.5.6 2.7.2 1.5-.4 1.9-.2 1.3.7-.5.8-1.8 1.1-3.7.7-1.8-.3-2.7-.2-2.3.4.3.6.1 1-.4 1-.6 0-1.1-.5-1.1-1 0-.6-.5-.9-1.1-.8-.6.2-1.3-.2-1.6-.8-.4-1.3 5.4-1.7 6.2-.4zm345.8-.3c-.7.2-2.1.2-3 0-1-.3-.4-.5 1.2-.5 1.7 0 2.4.2 1.8.5zm55.7.3c1.2.8.9 1-1.2 1-1.5 0-3-.5-3.3-1-.8-1.3 2.5-1.3 4.5 0zm-210.3.6c-.3.3-1.2.4-1.9.1-.8-.3-.5-.6.6-.6 1.1-.1 1.7.2 1.3.5zm43 .7c1 1.1-3 .8-4.7-.3-1.1-.7-.8-.8 1.3-.6 1.5.1 3 .6 3.4.9zm-18 1c.6.4 1.9.4 3 .1 1.7-.6 1.7-.6.1 1.1-1.5 1.6-1.8 1.7-3.3.2-1.2-1.3-2.2-1.4-4.1-.7-2.6 1-4.8.5-4-.9.6-1 6.7-.8 8.3.2zm133.9.5c-.3.3 0 1.2.6 2.1 1 1.3 1 1.4-.2.4-1.6-1.5-2.3-4.6-.8-3.7.5.3.7.9.4 1.2zM374 918c0 .9-1.4 1.2-3.7.9-.3 0-1 .6-1.5 1.5s-1.9 1.6-3.2 1.6c-2.3 0-2.9 2.1-1.3 4.7.5.7 0 .9-1.4.6-1.1-.3-1.8-1.1-1.5-1.9.3-.7.1-1.6-.4-1.9-.6-.4-1 0-1 .7 0 1-.2 1-.9-.1-1.3-2 .6-3.6 4.8-3.9 1.9-.1 4.2-.9 5-1.7 1.7-1.7 5.1-2 5.1-.5zm3.3 1c-.3 1.1-.9 2-1.4 2-.5 0-.9-.9-.9-2s.6-2 1.4-2c.9 0 1.2.7.9 2zm159.6-.4c.6-.4 1.1-.3 1.1.3 0 1.4-2.1 2.5-2.9 1.5-.3-.5-1.2-.9-1.8-1-3.2-.3-3.6-.7-1.3-1.3 1.4-.4 2.8-.3 3.1.2.4.5 1.2.6 1.8.3zm5.6-.6c-.3.5-1.4 1-2.3 1-1.5 0-1.5-.2-.2-1 2-1.3 3.3-1.3 2.5 0zM390 919c0 .5-1.2 1-2.6 1-1.4 0-2.3-.4-1.9-1 .3-.6 1.5-1 2.6-1 1 0 1.9.4 1.9 1zm135.8.3c.6.5 1.2 1.4 1.2 2 0 .7-.4.7-1.2-.1-.7-.7-2-1.2-3-1.2s-1.8-.4-1.8-.8c0-1.2 3.2-1.1 4.8.1zm-232 1.4c.5 1.7-2.3 1.6-3.7-.1-.9-1-.7-1.3 1.1-1.2 1.2 0 2.3.7 2.6 1.3zm3.7-.7c-.3.5-1 1-1.6 1-.5 0-.9-.5-.9-1 0-.6.7-1 1.6-1 .8 0 1.2.4.9 1zm19.4.6c.2.2.1.7-.2 1.1-.4.4-1.2.2-1.9-.5s-1.7-.8-2.9-.1c-1.5.8-1.7.6-1.2-.7.4-1.1 1.3-1.4 3.2-.9 1.4.4 2.8.9 3 1.1zm-7.9.4c0 .5-.4 1-1 1-.5 0-1-.5-1-1 0-.6.5-1 1-1 .6 0 1 .4 1 1zm48.1-.1c-.7.5-1.1 1.4-.7 2 .4.6-.5 1.3-2.1 1.7-1.5.3-3.4.7-4 1-.7.2-1.3-.1-1.3-.6 0-.6.5-1 1-1 .6 0 1-.7 1-1.6 0-1 .6-1.4 1.5-1.1.8.4 1.7.2 2-.3.4-.6 1.4-1 2.3-1 1.4 0 1.4.2.3.9zm16.9-.5c0 .2-.7.7-1.6 1-.8.3-1.2.2-.9-.4.6-1 2.5-1.4 2.5-.6zm58.3 5.4c.4 3.2.2 5-.3 4.7-.6-.4-1-2.9-1-5.7 0-6.4.5-6 1.3 1zm258.7-4.7c0 .5-.5.7-1 .4-.6-.4-1.7-.1-2.5.5-1.2 1-1.5.9-1.5-.4 0-1 .9-1.6 2.5-1.6 1.4 0 2.5.5 2.5 1.1zm10.3-.5c1.2 1.2-.6 3.4-2.7 3.4-1.7 0-1.8-.2-.6-1 .8-.5 1.1-1 .7-1-1 0 .2-2 1.2-2 .4 0 1 .3 1.4.6zm-414 1.1c-.7.2-1.9.2-2.5 0-.7-.3-.2-.5 1.2-.5s1.9.2 1.3.5zm18.7.8c.8 1 2.5 1.4 4.9 1.1 2-.2 2.8-.1 1.9.1-1 .2-1.8.9-1.8 1.4 0 .5-1.6.9-3.6.7-2.3-.2-3.9.2-4.1.9-.3.7.3 1.3 1.3 1.3.9 0 1.4.3 1.1.6-.3.4-.2 1.4.3 2.4.8 1.4.5 1.6-1.6 1.2-1.5-.3-2.1-.8-1.5-1.2.8-.4-.2-1.7-2.6-3.3-3.5-2.4-4.1-2.5-8.3-1.5-6 1.4-6.8 2.4-2.1 2.3 2.1 0 4.6-.7 5.5-1.4 1.4-1.2 1.6-1.1 1.3 1-.4 2.1-.8 2.3-4.3 2-2.1-.2-5.2-.4-6.8-.5-1.6 0-3.1-.7-3.4-1.5-.3-.9 0-1.1.7-.7 1.3.8 4.4-1.2 3.7-2.3-.2-.3 2.3-.7 5.7-.8 4.6-.1 6.4.3 7.4 1.5 1.1 1.6 1.2 1.6 1.3-.1 0-1.6 1.2-2.2 3.5-1.7 1.9.3-.9-1.8-3-2.3-1.6-.4-1.4-.5.6-.6 1.5 0 3.2.6 3.9 1.4zm94.5-.5c-.3.5-2.1 1-3.8.9-3.1-.1-3.1-.1-.7-.9 3.6-1.1 5.2-1.1 4.5 0zm122.2-.4c-.3.3-1.2.4-1.9.1-.8-.3-.5-.6.6-.6 1.1-.1 1.7.2 1.3.5zm132.3.4c.8.5 1.1 1 .5 1-.5 0-1.7-.5-2.5-1s-1-1-.5-1c.6 0 1.7.5 2.5 1zm4-.6c0 .3-.4.8-1 1.1-.5.3-1 .1-1-.4 0-.6.5-1.1 1-1.1.6 0 1 .2 1 .4zm-337.7 1.3c-.7.2-1.9.2-2.5 0-.7-.3-.2-.5 1.2-.5s1.9.2 1.3.5zm70.3.8c-1.6 1.7-3.6 2-3.6.6 0-.8 1.7-1.6 4.3-2 .5 0 .2.6-.7 1.4zm13.1-.9c-.3.3-1.2.4-1.9.1-.8-.3-.5-.6.6-.6 1.1-.1 1.7.2 1.3.5zm-18 1.8c0 1-1.1 1.4-3 1.4l-2.9-.1 2.3-1.3c3.1-1.7 3.6-1.7 3.6 0zm286.8-.4c.3.5.1 1-.4 1-.6 0-1.1-.5-1.1-1 0-.6.2-1 .4-1 .3 0 .8.4 1.1 1zm-12.5 2.1c0 1.1-1.2 1.1-3.5.3-1.2-.5-1.4-.9-.4-1.4 1.4-.9 3.9-.2 3.9 1.1zm63.6.7c.1 1.2-.3 2.2-.9 2.2-.5 0-.7-.9-.4-2 .3-1 .1-2.1-.4-2.4-.5-.2-.4-.3.3-.2.7.1 1.4 1.2 1.4 2.4zm-377.6-.9c0 1.5-2.3 2.6-2.8 1.3-.2-.6-1.4 0-2.7 1.6-2 2.3-2.4 2.5-3 1-.4-.9-1.3-1.4-2.1-1.1-.8.3-1.4 0-1.4-.7 0-.8 1-1.1 2.8-.8 1.6.2 3.4-.2 4.1-.9 1.4-1.5 5.1-1.8 5.1-.4zm10 .1c0 .5-.4 1-1 1-.5 0-1-.5-1-1 0-.6.5-1 1-1 .6 0 1 .4 1 1zm42.5 0c.3.5.2 1-.4 1-.5 0-1.3-.5-1.6-1-.3-.6-.2-1 .4-1 .5 0 1.3.4 1.6 1zm5.5.5c0 .8-.4 1.5-1 1.5-.5 0-1-.7-1-1.5s.5-1.5 1-1.5c.6 0 1 .7 1 1.5zm278-1.1c0 .2-.9.6-2 .9-1.1.3-2 .1-2-.4s.9-.9 2-.9 2 .2 2 .4zm-356.2 1.9c-1.6.6-2.8 1.4-2.8 1.9 0 .4-1.3.8-2.8.8-1.6 0-3.2.3-3.6.7-1.2 1.2-5 1-6.4-.4-1.1-1.1-.7-1.3 2.5-1.3 2.1 0 5.6-.7 7.8-1.5 4.8-1.7 9.6-1.9 5.3-.2zm47.8.4c0 1 .9 1.9 2.4 2.3 2.7.6 1.7 1.8-2.2 2.5-1.6.3-1.9.2-1-.7 1.2-1.2-.7-3.7-3-3.9-.7 0-.4-.4.7-.9 2.9-1.3 3.3-1.2 3.1.7zm39.1-1.1c-.3.3-1.2.4-1.9.1-.8-.3-.5-.6.6-.6 1.1-.1 1.7.2 1.3.5zm119.3.4c0 .5-.4 1-1 1-.5 0-1-.5-1-1 0-.6.5-1 1-1 .6 0 1 .4 1 1zm133.5.5c-2.2.8-5.6 1.3-7.5 1.3-2.8 0-2.3-.3 2.5-1.3 7.8-1.7 10.1-1.6 5 0zm11 .6c-.4.5-1.8.9-3.3.9h-2.7l2.5-1.4c2.6-1.3 4.4-1.1 3.5.5zm11.5-.4c0 .3-1.1.3-2.5.1-2-.4-2.3-.3-1.4.8.9 1.1.7 1.4-1 1.4-1.8 0-2-.3-1.2-1.9.7-1.3 1.8-1.7 3.6-1.4 1.4.3 2.5.8 2.5 1zm11-.7c.8.5 1.1 1 .5 1-.5 0-1.7-.5-2.5-1s-1-1-.5-1c.6 0 1.7.5 2.5 1zm-332.4 2.5c-1.1.8-2.7 1.4-3.5 1.4-1.3-.1-1.2-.2.2-.6.9-.2 1.7-.9 1.7-1.4 0-.5.8-.9 1.8-.9 1.5.1 1.5.2-.2 1.5zm58.8 1c-.9 1.4-2.1 2.5-2.6 2.5-.6 0-.4-.7.3-1.6 1.2-1.5 1.1-1.6-.9-1-1.3.4-2.2.3-2.2-.3 0-.5 1.5-1.2 3.3-1.4 1.7-.2 3.3-.5 3.5-.5.1-.1-.5.9-1.4 2.3zm279.9-1.8c-.7.2-1.9.2-2.5 0-.7-.3-.2-.5 1.2-.5s1.9.2 1.3.5zm15.7.2c0 .6-.4 1.3-1 1.6-.5.3-1-.1-1-.9 0-.9.5-1.6 1-1.6.6 0 1 .4 1 .9zm-413 .5c0 .3-.4.8-1 1.1-.5.3-1 .1-1-.4 0-.6.5-1.1 1-1.1.6 0 1 .2 1 .4zm38 2.3c0 1.3-.3 1.3-1.5.3-.8-.7-1.5-1.6-1.5-2.1s.7-.6 1.5-.3c.8.4 1.5 1.3 1.5 2.1zm4.5-1.7c.3.5.4 1 .1 1-.2 0-1.2.3-2 .6-1.2.5-1.5.2-1-1 .7-1.8 2-2.1 2.9-.6zm61.5 1c2.5 2.5 2.5 2.6 0 3.3-1.1.3-1.8.1-1.5-.4.3-.5.1-1.8-.5-2.9-1.4-2.6-.6-2.6 2 0zm7.4-.4c.9 2.4.7 2.8-.9 1.4-1.7-1.4-2-3-.6-3 .5 0 1.2.7 1.5 1.6zm-89 .4c-.5.5-2.5 1.2-4.4 1.5l-3.5.6 3.5-1.4c4.4-1.8 5.7-2 4.4-.7zm3.2 1.7c-1 1-1.9-.5-1-1.8.6-1.1.8-1.1 1.2 0 .2.7.1 1.5-.2 1.8zm158.9 8.5c.6 2.2 0 3.4-3.5 7.2-8.1 8.8-20 15.1-29.5 15.7-4.9.3-5 .2-7.2-3.6-1.3-2.2-2.2-4.9-2.2-6 0-1.1.3-1.4.6-.7.2.6 1 .9 1.5.6.7-.4.8-.2.4.4-.9 1.5 4.5 4.2 8.6 4.2 3.1 0 18.6-6.5 17.7-7.5-.3-.2-3.6.7-7.4 2-4.3 1.5-9.1 2.4-12.5 2.3l-5.5-.1 6.2-.8c10.8-1.4 22-8.5 24.3-15.3.7-2.1.7-4.3 0-6.6l-1-3.5 4.4 4.5c2.5 2.5 4.8 5.7 5.1 7.2zm-132-9.1c1.2 1.8-.2 2-3.6.5l-3.4-1.4 3.2-.1c1.7-.1 3.5.4 3.8 1zm22.1-.4c-.3.4.4 1.3 1.6 2 2.2 1.2 2.2 1.2-1.2 1.2-2.6.1-3.1-.2-2-.9.8-.5 1.1-1 .7-1-.9 0 .1-2 1-2 .4 0 .3.3-.1.7zm288.9.4c1 1.6-.3 2.3-1.8 1-.8-.6-2.3-.9-3.3-.5-1.6.5-1.6.4-.4-.5 1.9-1.4 4.7-1.4 5.5 0zm-392.7.8c.7.1 1.1.5.8 1-.4.5 0 1.2.6 1.4.7.3.4.6-.7.6-1.2.1-2.6.5-3.3 1.1-.9.7-.9.7-.2-.2 1.9-2.3 1.1-3.5-2.2-3.1-2.2.3-2.9.1-2-.5.7-.5 2.3-.7 3.5-.6 1.2.1 2.8.3 3.5.3zm8.3.5c.5-.3.9 0 .9.6 0 .7-.6 1-1.2.7-.7-.2-2.2 0-3.3.6-2 1-2 1 0-1.2 1.1-1.3 2.1-1.8 2.3-1.2.2.6.8.9 1.3.5zm3.7 1.1c-.3.3-.9-.2-1.2-1.2-.6-1.4-.5-1.5.5-.6.7.7 1 1.5.7 1.8zm28.7-1.5c-.3.5-1.4 1-2.3 1-1.5 0-1.5-.2-.2-1 2-1.3 3.3-1.3 2.5 0zm48.8-.3c-.7.2-2.1.2-3 0-1-.3-.4-.5 1.2-.5 1.7 0 2.4.2 1.8.5zm311.4.8c0 .8-.6 1.5-1.4 1.5-1.7 0-1.7-1.7 0-2.3.6-.3 1.2-.6 1.3-.6 0-.1.1.6.1 1.4zm-383 .1c-.3.3-1.2.4-1.9.1-.8-.3-.5-.6.6-.6 1.1-.1 1.7.2 1.3.5zm8.4.4c.6 0 .8.4.5.8-.3.5-1.9.7-3.7.4-2.2-.3-2.7-.7-1.8-1.3.8-.5 2-.7 2.7-.4.8.3 1.8.5 2.3.5zm9.9 0c0 .5-.7 1-1.6 1-.8 0-1.2-.5-.9-1 .3-.6 1-1 1.6-1 .5 0 .9.4.9 1zm103.5 0c.3.6-.1.7-.9.4-1.8-.7-2.1-1.4-.7-1.4.6 0 1.3.4 1.6 1zm18.7 7.5l1.1 2-2.4-2c-3.7-3.2-5.8-5.9-5.8-7.5 0-1.5 5 3.8 7.1 7.5zm-99.8-6c-.4.8-1.1 1.5-1.6 1.5-.6 0-.5-.6.2-1.5.7-.8 1.4-1.5 1.6-1.5.2 0 .1.7-.2 1.5zm18.1-.5c-.3.5-1 1-1.6 1-.5 0-.9-.5-.9-1 0-.6.7-1 1.6-1 .8 0 1.2.4.9 1zm-14.5 1.5c-.7.9-1.5 1.3-1.9 1-.3-.3.1-1 .9-1.5 2.1-1.4 2.4-1.2 1 .5zm21.5.4c-.4.3-1 .6-1.4.6-.4 0-1.5.8-2.5 1.7-1.1 1.2-1.3 1.8-.5 1.8.7 0 1 .2.7.5-.3.3-1.6.1-2.9-.4-1.3-.5-1.8-1-1.1-1 .6-.1 1.2-.8 1.2-1.7 0-.9.5-1.2 1.2-.8.7.5.9.2.6-.7-.5-1.2.1-1.4 2.4-1.1 1.6.2 2.6.7 2.3 1.1zm-72.8 1.1c-.1 1.2-.5 1.6-1 1.1s-.6-1.4-.3-2c1.1-1.6 1.5-1.3 1.3.9zm29.3-1.5c0 .2-1 1-2.2 1.6-2.1 1.1-2.2 1.1-.9-.4 1.3-1.6 3.1-2.3 3.1-1.2zm11-.1c0 .2-.7.7-1.6 1-.8.3-1.2.2-.9-.4.6-1 2.5-1.4 2.5-.6zm68.7 1.1c-.8.7-2.8 1.7-4.3 2-2.8.7-2.8.6.6-1.3 4.2-2.5 5.7-2.8 3.7-.7zm281.6 0c2 .8 3.9 2 4.2 2.6.4.6-1 .2-3.1-.9-2.2-1.1-4.6-2.2-5.4-2.5-.8-.3-1-.6-.4-.6.6-.1 2.8.6 4.7 1.4zM267 938.6c0 .8-.5 1.2-1 .9-.6-.4-.8-1.1-.5-1.6.9-1.4 1.5-1.1 1.5.7zm152-.6c0 .6-1.3.9-2.8.8-1.5-.1-3.3.1-4 .6-.7.4-1.2.3-1.2-.3 0-1.2 1.8-1.9 5.3-2 1.5-.1 2.7.4 2.7.9zm315.7 1.2c-.3.8-.6.5-.6-.6-.1-1.1.2-1.7.5-1.3.3.3.4 1.2.1 1.9zm-462.2-.2c1.8.8 1.7.9-.7.9-1.6.1-2.8-.4-2.8-.9 0-1.2.8-1.2 3.5 0zm62.3 2.6c-.4.3-1.7.2-3-.2-2.2-.7-2.2-.7-.3-1.4 2-.8 4.4.4 3.3 1.6zm47.2-.6c0 .5-.2 1-.4 1-.3 0-.8-.5-1.1-1-.3-.6-.1-1 .4-1 .6 0 1.1.4 1.1 1zm8 0c1.2.8 1.1 1-.7 1-1.3 0-2.3-.5-2.3-1 0-1.3 1.1-1.3 3 0zm37-.6c0 .3-.4.8-1 1.1-.5.3-1 .1-1-.4 0-.6.5-1.1 1-1.1.6 0 1 .2 1 .4zm-145 2c0 1.4-3.4 2.8-4.4 1.8-.5-.4 2.1-2.3 4.2-3.1.1-.1.2.5.2 1.3zm428.2.9c-.9 1-.7 1.9.4 3.5 1.3 2 1.3 2.1-.1 1.6-.8-.3-1.5-1.2-1.5-2s-.7-1.4-1.6-1.4c-1.4 0-1.4-.3-.4-1.5.7-.8 1.9-1.5 2.7-1.5 1.2 0 1.3.3.5 1.3zm5.7.1c.9 1.1.6 1.2-1.4.8-1.4-.2-2.5-.8-2.5-1.3 0-1.4 2.6-1.1 3.9.5zm-373.3 1.1c-1.1.8-2.7 1.5-3.5 1.5-.9-.1-.2-.7 1.4-1.5 3.9-1.8 4.4-1.8 2.1 0zm6.1-.9c-.3.3-1.2.4-1.9.1-.8-.3-.5-.6.6-.6 1.1-.1 1.7.2 1.3.5zm-35 1c-.3.3-1.2.4-1.9.1-.8-.3-.5-.6.6-.6 1.1-.1 1.7.2 1.3.5zm5.3.4c0 .5-.5 1-1.1 1-.5 0-.7-.5-.4-1 .3-.6.8-1 1.1-1 .2 0 .4.4.4 1zm53 .4c0 .3-.4.8-1 1.1-.5.3-1 .1-1-.4 0-.6.5-1.1 1-1.1.6 0 1 .2 1 .4zm32.5 1.4c-.3.3-1.1 0-1.8-.7-.9-1-.8-1.1.6-.5 1 .3 1.5.9 1.2 1.2zm-107.2-.1c-.7.2-2.1.2-3 0-1-.3-.4-.5 1.2-.5 1.7 0 2.4.2 1.8.5zm407.5.5c.7-2.3 3.2-1.3 3 1.3-.1 1.4-.3 2.5-.4 2.5-.6 0-9.4-4.2-9.4-4.5 0-.2 1.4.1 3.2.7 2.4.9 3.3.8 3.6 0zM347 949c0 .5-.4 1-1 1-.5 0-1-.5-1-1 0-.6.5-1 1-1 .6 0 1 .4 1 1zm19.5 1c-.2.4-1.6.5-3 .3-1.3-.3-2.3-.9-2-1.3.2-.4 1.6-.5 3-.3 1.3.3 2.3.9 2 1.3zm-40.5 0c0 .5-.2 1-.4 1-.3 0-.8-.5-1.1-1-.3-.6-.1-1 .4-1 .6 0 1.1.4 1.1 1zm30.5 0c-.4.6-1 .8-1.5.5-.4-.3-1 0-1.2.6-.2.6-1.1.7-2.3.3-1.9-.8-1.8-.9.5-1.5 3.8-1.1 5.2-1 4.5.1zm-16.5.4c0 1.1-1.9 1.5-2.5.6-.3-.5.1-1 .9-1 .9 0 1.6.2 1.6.4zm4.4 1.1c.3.8.1 1.5-.4 1.5-.6 0-1-.7-1-1.5s.2-1.5.4-1.5.6.7 1 1.5zm70.3-.9c-.3.3-1.2.4-1.9.1-.8-.3-.5-.6.6-.6 1.1-.1 1.7.2 1.3.5zm-75.6 2.4c1.6 0 2.9.4 2.9.9 0 .6-1.2.9-2.7.8-2.8-.2-4.3-1.4-4.2-3.2 0-.6.3-.4.6.2.2.7 1.8 1.3 3.4 1.3zm-45.4-.4c-.3.3-1.2.4-1.9.1-.8-.3-.5-.6.6-.6 1.1-.1 1.7.2 1.3.5zm65 2.6c-.3.8-.6.5-.6-.6-.1-1.1.2-1.7.5-1.3.3.3.4 1.2.1 1.9zm42.8-1.2c-.3.5-1.6 1-2.8.9-2-.1-2-.2.3-.9 1.4-.4 2.6-.8 2.8-.9.2-.1 0 .3-.3.9zm-88.4 1.8c-.7.2-1.8-.1-2.3-.6-.8-.8-.4-.9 1.3-.5 1.3.4 1.8.8 1 1.1zm5.8 1.5c-.2.1-1.2.9-2.2 1.6-1.5 1.2-1.7 1.2-1.1-.3.3-.9 1.3-1.6 2.2-1.6.8 0 1.3.1 1.1.3zm7.6 2.6c-.6.5-2.5-1-2.5-2 0-.5.6-.4 1.4.3.8.7 1.2 1.5 1.1 1.7zm22.6-.6c-1 .9-1.1.8-.5-.6.3-1 .9-1.5 1.2-1.2.3.3 0 1.1-.7 1.8zm68.9-1.9c0 .3-.4.8-1 1.1-.5.3-1 .1-1-.4 0-.6.5-1.1 1-1.1.6 0 1 .2 1 .4zm16 .6c0 .5-.2 1-.4 1-.3 0-.8-.5-1.1-1-.3-.6-.1-1 .4-1 .6 0 1.1.4 1.1 1zm-79.5 6.9c.3.5.1 1.2-.5 1.6-.5.3-1-.1-1-.9 0-1.8.6-2.1 1.5-.7zm-4.4 1.8c1.3 1.6 1.2 1.7-.3.4-1.7-1.3-2.2-2.1-1.4-2.1.2 0 1 .8 1.7 1.7zM427 977c0 .5-.4 1-1 1-.5 0-1-.5-1-1 0-.6.5-1 1-1 .6 0 1 .4 1 1zm183 1.4c0 .3-.4.8-1 1.1-.5.3-1 .1-1-.4 0-.6.5-1.1 1-1.1.6 0 1 .2 1 .4zM409 981c0 .5-.4 1-1 1-.5 0-1-.5-1-1 0-.6.5-1 1-1 .6 0 1 .4 1 1zm134.7-.4c-.3.3-1.2.4-1.9.1-.8-.3-.5-.6.6-.6 1.1-.1 1.7.2 1.3.5zm-144.8 3.8c-.2.2-1.7.6-3.4 1-2.2.5-2.6.4-1.5-.4 1.4-.9 5.9-1.5 4.9-.6zm.1 2c0 .2-.7.7-1.6 1-.8.3-1.2.2-.9-.4.6-1 2.5-1.4 2.5-.6z"/><path d="M614 525.6c0 1 .6 1.4 1.4 1.1 1.1-.4 1.3-.1.9 1.1-.6 1.5-.5 1.5 1.1.3 1.7-1.4 1.7-1.5 0-2.8-2.4-1.7-3.4-1.6-3.4.3zM620.7 531.5c-.4.8-.2 1.7.3 2 .6.4 1-.3 1-1.4 0-2.5-.6-2.7-1.3-.6zM616 538.6c0 1.4.3 1.4 1.5.4.8-.7 1.5-1.4 1.5-1.6 0-.2-.7-.4-1.5-.4s-1.5.7-1.5 1.6zM613.2 544c0 1.4.2 1.9.5 1.2.2-.6.2-1.8 0-2.5-.3-.6-.5-.1-.5 1.3zM420.3 549.3c.4 1 .7 2.5.7 3.3 0 .8.5 1.4 1 1.4 1.6 0 1.2-3-.7-4.8-1.6-1.6-1.6-1.6-1 .1zM539.8 889.7c.7.3 1.6.2 1.9-.1.4-.3-.2-.6-1.3-.5-1.1 0-1.4.3-.6.6zM502.8 887.7c.6.2 1.8.2 2.5 0 .6-.3.1-.5-1.3-.5-1.4 0-1.9.2-1.2.5zM584.4 935.1c-2.8 2.9-10.5 7.2-13.1 7.2-.7 0-1 .4-.7.8.7 1.2-6.2 2.2-10.3 1.5-2.8-.5-3.4-.4-2.3.3 2.4 1.7 10.5 1.2 16.2-.9 3.5-1.3 7.1-3.7 10.3-7 2.7-2.7 4.5-5 3.9-5-.6 0-2.3 1.4-4 3.1zM540 936.7c.1 2 1.9 3.5 3.6 2.9 1.6-.6 1.6-.7-.2-2.1-2.1-1.6-3.4-1.9-3.4-.8zM549.8 942.1c-1.9 1.2 3.7 2.3 5.8 1.1 1.4-.8 1.2-1-1.4-1.4-1.8-.2-3.7-.1-4.4.3zM548.8 945.7c.7.3 1.6.2 1.9-.1.4-.3-.2-.6-1.3-.5-1.1 0-1.4.3-.6.6zM565.5 947.9c-.3.6 1 .7 3.2.4 5-.8 5.5-1.3 1-1.3-2 0-3.8.4-4.2.9zM628.8 918.7c.6.2 1.8.2 2.5 0 .6-.3.1-.5-1.3-.5-1.4 0-1.9.2-1.2.5zM469.6 958.7c-.3.4-3.2 1.2-6.4 1.9l-5.7 1.2 4.3.1c3.8.1 10.2-2.1 10.2-3.4 0-.7-1.6-.6-2.4.2zM791.8 418.7c.7.3 1.6.2 1.9-.1.4-.3-.2-.6-1.3-.5-1.1 0-1.4.3-.6.6zM755.4 427c-1.2.5-3.1 2.2-4.3 3.8-1.9 2.7-1.9 3.1-.5 3.6 2.1.8 4.5-1.1 3.7-3-.3-.9.2-1.4 1.3-1.5 1.7 0 1.7-.1-.1-.9-1.8-.7-1.6-.8 1-1.1 1.7-.2 2.6-.7 2-1-.5-.4-2-.3-3.1.1zM820 433.1c0 .5.5.7 1 .4.6-.3 1-.8 1-1.1 0-.2-.4-.4-1-.4-.5 0-1 .5-1 1.1zM791.3 435.7c.8.9 2 1.2 2.6.9 1.9-1.2 1.2-2.1-1.5-2.3-2.4-.1-2.5.1-1.1 1.4zM781.7 435.7c-.4.3-.7 1.1-.7 1.7 0 .6.5.5 1.2-.2.6-.6.9-1.4.7-1.7-.3-.3-.9-.2-1.2.2zM824.1 440.6c0 1.1.3 1.4.6.6.3-.7.2-1.6-.1-1.9-.3-.4-.6.2-.5 1.3zM737.3 443.2c-.1 1 .5 1.8 1.3 1.8s1.4-.8 1.4-1.8-.6-1.9-1.3-1.9c-.7 0-1.4.9-1.4 1.9zM357.6 443.3c.3.8 1.1 1.4 1.9 1.4 1.1 0 1.2-.4.4-1.4-.6-.7-1.5-1.3-2-1.3s-.6.6-.3 1.3zM742 444c0 1.5 1.5 1.9 3 .9.8-.5 1.3-.9 1-1-.3 0-1.3-.2-2.2-.4-1-.2-1.8.1-1.8.5zM856.1 444.4c-1 1.2-.7 1.5 1.7 1.4 2.1-.1 2.9-.5 2.5-1.4-.7-1.8-2.7-1.8-4.2 0zM709 447c-.9.6-1 1-.3 1 .6 0 1.5-.5 1.8-1 .8-1.2.4-1.2-1.5 0zM877.4 449.5c2.2 1.7 3.6 1.9 3.6.6 0-1-2.4-2.1-4.3-2.1-.7 0-.3.7.7 1.5zM846 450c0 .5.7 1 1.5 1s1.5-.5 1.5-1c0-.6-.7-1-1.5-1s-1.5.4-1.5 1zM895 453c2.3 2 3 2.4 3 1.6 0-.9-3.2-3.6-4.2-3.6-.6 0-.1.9 1.2 2zM685 460.9c0 .7-.3 1-.7.8-.5-.3-1.4.1-2.1.9-1.1 1.2-1 1.5.5 2.1 1 .3 2.8 1.5 4 2.6l2.3 2-1.3-2.6c-.6-1.5-1.6-2.7-2.2-2.7-.5 0-.3-.5.5-1 1.2-.7 1.2-1.2.2-2.2-.9-.9-1.2-.9-1.2.1zM364 471c0 .5.5 1 1.1 1 .5 0 .7-.5.4-1-.3-.6-.8-1-1.1-1-.2 0-.4.4-.4 1zM357 479c0 .5.5 1 1 1 .6 0 1-.5 1-1 0-.6-.4-1-1-1-.5 0-1 .4-1 1zM651 495.1c0 .5.5.7 1 .4.6-.3 1-.8 1-1.1 0-.2-.4-.4-1-.4-.5 0-1 .5-1 1.1zM369.3 898.9c-.8 1.3-1.9 1.7-3.9 1.3-1.9-.3-2.5-.1-2 .7 1.2 1.9-.6 1.2-3.2-1.2-1.4-1.2-2.2-1.6-1.8-1 .5 1-.4 1.3-3.3 1.3-2.2 0-4.2.4-4.5.9-.3.5-1.5 1.1-2.6 1.4-1.2.3-1.8.1-1.4-.5.4-.7-.7-.8-3.2-.4-2.2.3-5.9.9-8.4 1.2-2.4.2-5.2 1.2-6.2 2.1-1.7 1.5-1.8 1.5-1.9-.3 0-1-.3-1.4-.5-.8-.3.7-1.5 1-2.7.8-1.2-.2-1.6-.2-.9.2 1.7.8.5 2.4-2 2.4-1.6 0-1.8-.3-.9-1.3.9-1.1.3-1.4-2.9-1.5-2.2-.1-4 .3-4 .8 0 .6 1.1 1 2.5 1s2.5.4 2.5 1c0 .5-1.2 1-2.7 1-2 0-2.4.3-1.4.9.7.5 3.5.9 6.1.9 2.6 0 6.2.3 8.1.6 2.5.6 3 .5 1.9-.3-1.9-1.4 3.6-1 9.5.6 11.2 3.1 12.2 3.1 23 .5 2.2-.6 6.3-1.3 9-1.7 2.8-.4 4.4-1 3.6-1.3-.9-.3-.5-1.1 1.4-2.8 2.4-2.1 2.6-2.4 1-3-.9-.4-2-.3-2.4.3-1 1.5-4.1 2.4-4.1 1.2 0-.6-.6-.9-1.2-.6-.7.2-2.2.1-3.3-.4-1.7-.6-1.5-.8 1-.9 1.7-.1 3.7-.4 4.6-.8 1.5-.6 1.5-.8 0-2.4-1.6-1.6-1.7-1.6-2.8.1zm-11.6 3.7c-.3.3-1.2.4-1.9.1-.8-.3-.5-.6.6-.6 1.1-.1 1.7.2 1.3.5zM299.3 898.7c.9.2 2.3.2 3 0 .6-.3-.1-.5-1.8-.5-1.6 0-2.2.2-1.2.5zM378 899.3c0 .7 1.4 2.6 3 4.2 1.7 1.6 3 2.4 3 1.7 0-.6-.5-1.4-1-1.7-2-1.2.2-2.6 3.1-2 1.6.4 2.9.2 2.9-.3s-1.6-.9-3.5-1c-1.9-.1-4.4-.6-5.5-1.2-1.5-.8-2-.8-2 .3zM290 900c-1.2.8-1 1 1 .9 1.4 0 3.4-.4 4.5-.9 1.7-.7 1.6-.9-1-.9-1.6 0-3.7.4-4.5.9zM392 901.8c0 .4.9.8 1.9.8 1.1 0 1.7-.4 1.5-.8-.3-.4-1.2-.8-2-.8s-1.4.4-1.4.8zM289.5 904c-.3.5-.2 1 .4 1 .5 0 1.3-.5 1.6-1 .3-.6.2-1-.4-1-.5 0-1.3.4-1.6 1zM305.1 904c-.1 2.7 2.2 4.8 4.4 3.9 2-.7 2-.8-.1-.8-1.2-.1-2.6-1.1-3.2-2.4-.6-1.3-1.1-1.6-1.1-.7zM295 906c0 .5.4 1 .9 1 .6 0 1.3-.5 1.6-1 .3-.6-.1-1-.9-1-.9 0-1.6.4-1.6 1zM395 908c0 1.1.2 2 .5 2 .2 0 .9-.9 1.5-2 .9-1.6.8-2-.5-2-.8 0-1.5.9-1.5 2zM301.8 907.7c.7.3 1.6.2 1.9-.1.4-.3-.2-.6-1.3-.5-1.1 0-1.4.3-.6.6zM379.6 908.5c.4.8 1 1.5 1.5 1.5s.9-.7.9-1.5-.7-1.5-1.5-1.5c-.9 0-1.2.6-.9 1.5zM400 908c-1.3.8-1.3 1 .2 1 .9 0 2-.5 2.3-1 .8-1.3-.5-1.3-2.5 0zM231.5 909c-1.3.6-1.5.9-.5.9.8.1 2.6 1.1 4 2.4 1.4 1.2 2 1.8 1.3 1.3-.8-.5-1.3-.4-1.3.4 0 .9-.7.7-2.1-.6-2.2-1.9-2.2-1.9-.9.5 1 1.9 1 2.5-.1 3.2-1.9 1.2-3.2 1.1-2.4-.1.7-1.1-.8-1.4-1.8-.4-1 1 1.7 3.2 3.2 2.6.9-.3 1.2-.1.7.6-1.1 1.8 11.2 9.4 14.4 8.9 4.7-.7 9-2.9 9.1-4.5.1-1 .5-.4.8 1.3.9 3.9.6 4.5-2.7 4.5-1.5 0-3.4.5-4.2 1.1-1.2.9-1.1 1 .7.6 1.5-.3 2-.1 1.6.9-.7 1.9.4 1.8 4.3-.7 3.8-2.3 3.8-2.3 2.4-5-.6-1-.7-1.9-.2-1.9 1.3 0 1.1-3-.2-3.1-.6 0-.2-.4.9-.8 1.1-.5 3.5-.7 5.3-.6 1.7.2 3.2-.1 3.2-.6s.8-.9 1.8-.9c1.9 0 4.2-1.8 4.2-3.2 0-.5-1.3-.2-3 .7-3.4 1.8-5.4 1.9-4.4.4.5-.9-.1-1-2-.5-1.6.4-2.5.3-2.2-.2.3-.5 2.3-1.2 4.3-1.6 3.8-.6 8.1-3.1 7.1-4.1-.3-.3-1.9-.7-3.7-.8-1.7-.1-3.1-.5-3.1-.9s-1.2-.3-2.6.2c-1.4.6-2.3.6-2 .1 1.1-1.7-8.9.2-11 2-1.2 1.2-2.4 1.5-3 1-.5-.6-2.7-.6-5.1-.2-2.4.5-4.3.5-4.3.1 0-.9 3.9-2.3 5.7-2.1.6.1 1.4-.3 1.8-.9.8-1.2-11.1-1.3-14 0zm27.5 8c0 .5-.8 1-1.7 1-1.5 0-1.6-.2-.3-1 1.9-1.2 2-1.2 2 0zm-7 2c-.8.5-2.4 1-3.5 1-1.7 0-1.7-.2-.5-1 .8-.5 2.4-1 3.5-1 1.7 0 1.7.2.5 1zm-6.8 3.2c-.9.9-1.5.9-2.4-.1-1.1-1.1-1-1.3.5-.8 1 .4 1.7.2 1.7-.5 0-.6.3-.8.7-.5.4.4.1 1.3-.5 1.9zM286.6 909c.6.6 2.1.6 3.9.1 3-.9 3-.9-.9-1-2.6-.1-3.7.2-3 .9zM221.9 911.3c.7.7 1.4.8 2.1.1.6-.6.2-1-1.2-1.1-1.6-.2-1.8.1-.9 1zM296.5 911c.3.5.8 1 1.1 1 .2 0 .4-.5.4-1 0-.6-.5-1-1.1-1-.5 0-.7.4-.4 1zM377 911c0 .6-.6 1-1.2.9-3.2-.4-5.9.2-5.3 1.1.4.6 1.1.8 1.6.5.5-.4 2.7-.7 4.9-.7 4.1 0 5.3-1.1 2.4-2.2-2.1-.8-2.4-.8-2.4.4zM326.3 912.3c.5 1.7 4.7 2.8 4.7 1.3 0-.8-1.1-1.6-2.5-1.9-1.5-.2-2.4 0-2.2.6z"/><path d="M227.6 912.8c-.3.5-2.1.8-4 .7-1.9 0-3.2.3-3 .7.5.8 8.1.4 9-.5.3-.3.1-.8-.5-1.1-.5-.4-1.2-.3-1.5.2zM273.5 913c-.3.5.1 1 1 1s1.3-.5 1-1c-.3-.6-.8-1-1-1-.2 0-.7.4-1 1zM315 913c-.8.5-1.2 1.2-.9 1.5.4.3 1.2-.1 1.9-1 1.4-1.7 1.1-1.9-1-.5zM341 914.1c0 .5 1 .8 2.3.8 1.2 0 3.3.3 4.6.7 2.1.6 2.3.5 1.2-.7-1.5-1.5-8.1-2.2-8.1-.8zM316.6 914.9c-.5.7.6 1.1 3.1 1.2 2.1.1 4.8.3 6.1.4 4.2.4.8-1.3-3.9-2-3-.4-4.9-.3-5.3.4zM274.7 916.7c.6 1.5 1.3 1.6 3.1.4 1-.6.7-1-1.1-1.3-1.8-.4-2.4-.1-2 .9zM280 915.9c0 .5.9 1.1 2.1 1.4 1.6.4 1.8.3.8-.9-1.3-1.6-2.9-1.9-2.9-.5zM351.6 915.9c-.4.5.3.7 1.4.4 2.3-.6 2.6-1.3.6-1.3-.8 0-1.7.4-2 .9zM332 917c0 .5 1.1 1 2.5 1s2.5-.5 2.5-1c0-.6-1.1-1-2.5-1s-2.5.4-2.5 1zM276.8 927.7c.7.3 1.6.2 1.9-.1.4-.3-.2-.6-1.3-.5-1.1 0-1.4.3-.6.6zM745.6 931l-3 .5 2.7 1.2c2.2 1 2.7 1 2.7-.1 0-.9.7-1.2 2-.9 1.1.3 2 .3 2 0 0-.9-3.5-1.3-6.4-.7z"/></svg>