<svg version="1" xmlns="http://www.w3.org/2000/svg" width="240" height="240" viewBox="0 0 180.000000 180.000000"><path d="M82.8 24.5c-.2.2-2.1.5-4.3.8C64 27.4 47.2 37.6 37.6 50.4c-14.3 19-17.2 47.5-6.9 67.8.7 1.5 1.3 3.1 1.2 3.4 0 .4.3 1 .8 1.3.5.3 1.7 1.9 2.6 3.4 4 6.3 10.5 13 16.9 17.3 2.4 1.6 4.6 3.3 4.9 3.7.3.5.9.9 1.2.8.4 0 2.8.9 5.4 2.1 7.6 3.4 19.1 5.5 27.9 5.2 8.7-.3 10.7-.6 17.7-2.7 2.6-.8 4.7-1.2 4.7-.9 0 .4.4.2.8-.4.4-.5 2.5-1.8 4.7-2.8 2.2-1.1 5.8-3.1 8-4.6 4.3-3 15.5-13.9 15.5-15.1 0-.4.6-1.4 1.3-2.1 3.2-3.4 8.5-15.8 10.3-24.3.8-4 .9-18.9.1-24.1-2-12.7-9.5-26.3-20.1-36.6-5.8-5.6-19.4-13.5-25.1-14.6-3.2-.6-5-1-5-1.2 0-.7-21-2.1-21.7-1.5z"/></svg>